<svg xmlns="http://www.w3.org/2000/svg" viewBox="0 0 800 460">
  <defs>
    <linearGradient id="bgGrad" x1="0%" y1="0%" x2="100%" y2="100%">
      <stop offset="0%" style="stop-color:#FFFBF5"/>
      <stop offset="100%" style="stop-color:#FFF3E0"/>
    </linearGradient>
    <filter id="shadow" x="-20%" y="-20%" width="140%" height="140%">
      <feDropShadow dx="2" dy="3" stdDeviation="3" flood-opacity="0.12"/>
    </filter>
  </defs>
  
  <!-- 배경 -->
  <rect width="800" height="460" fill="url(#bgGrad)"/>
  
  <!-- 제목: 박스(300×30), 폰트16 -->
  <rect x="250" y="8" width="300" height="30" rx="6" fill="#3E2723"/>
  <text x="400" y="29" text-anchor="middle" font-family="Noto Sans KR, sans-serif" font-size="15" font-weight="700" fill="#FFFFFF">🧠 학습 모드 화면 구성</text>
  
  <!-- 모드 탭 (y:46) -->
  <rect x="300" y="46" width="90" height="26" rx="5" fill="#E53935"/>
  <text x="345" y="64" text-anchor="middle" font-family="Noto Sans KR, sans-serif" font-size="10" fill="#FFFFFF">🧠 학습 모드</text>
  
  <rect x="400" y="46" width="90" height="26" rx="5" fill="#FFFFFF" stroke="#FFCCBC"/>
  <text x="445" y="64" text-anchor="middle" font-family="Noto Sans KR, sans-serif" font-size="10" fill="#8D6E63">🔮 추론 모드</text>
  
  <!-- ===== 왼쪽 패널: 데이터 입력 (x:25, w:180) ===== -->
  <rect x="25" y="82" width="180" height="280" rx="10" fill="#FFFFFF" filter="url(#shadow)"/>
  
  <!-- 헤더 -->
  <rect x="25" y="82" width="180" height="28" rx="10" fill="#E53935"/>
  <rect x="25" y="100" width="180" height="10" fill="#E53935"/>
  <text x="115" y="102" text-anchor="middle" font-family="Noto Sans KR, sans-serif" font-size="11" font-weight="600" fill="#FFFFFF">📁 데이터 입력</text>
  
  <!-- 탭 버튼 (y:120, h:22) -->
  <rect x="35" y="120" width="50" height="22" rx="4" fill="#E53935"/>
  <text x="60" y="136" text-anchor="middle" font-family="Noto Sans KR, sans-serif" font-size="9" fill="#FFFFFF">프리셋</text>
  
  <rect x="90" y="120" width="40" height="22" rx="4" fill="#FFF3E0" stroke="#FFCCBC"/>
  <text x="110" y="136" text-anchor="middle" font-family="Noto Sans KR, sans-serif" font-size="9" fill="#8D6E63">CSV</text>
  
  <rect x="135" y="120" width="60" height="22" rx="4" fill="#FFF3E0" stroke="#FFCCBC"/>
  <text x="165" y="136" text-anchor="middle" font-family="Noto Sans KR, sans-serif" font-size="9" fill="#8D6E63">직접입력</text>
  
  <!-- 프리셋 버튼들 (y:150) -->
  <rect x="35" y="150" width="75" height="26" rx="5" fill="#FFFFFF" stroke="#FFCCBC"/>
  <text x="72" y="168" text-anchor="middle" font-family="Noto Sans KR, sans-serif" font-size="9" fill="#5D4037">🏠 주택</text>
  
  <rect x="115" y="150" width="75" height="26" rx="5" fill="#FFFFFF" stroke="#FFCCBC"/>
  <text x="152" y="168" text-anchor="middle" font-family="Noto Sans KR, sans-serif" font-size="9" fill="#5D4037">📝 시험</text>
  
  <rect x="35" y="182" width="75" height="26" rx="5" fill="#FFFFFF" stroke="#FFCCBC"/>
  <text x="72" y="200" text-anchor="middle" font-family="Noto Sans KR, sans-serif" font-size="9" fill="#5D4037">💰 급여</text>
  
  <rect x="115" y="182" width="75" height="26" rx="5" fill="#FFFFFF" stroke="#FFCCBC"/>
  <text x="152" y="200" text-anchor="middle" font-family="Noto Sans KR, sans-serif" font-size="9" fill="#5D4037">🎲 랜덤</text>
  
  <!-- 슬라이더 (y:218) -->
  <text x="35" y="230" font-family="Noto Sans KR, sans-serif" font-size="9" fill="#5D4037">데이터 개수</text>
  <rect x="35" y="236" width="130" height="6" rx="3" fill="#FFF3E0"/>
  <rect x="35" y="236" width="70" height="6" rx="3" fill="#E53935"/>
  <circle cx="105" cy="239" r="5" fill="#E53935"/>
  <text x="175" y="242" text-anchor="middle" font-family="Noto Sans KR, sans-serif" font-size="9" font-weight="600" fill="#E53935">30개</text>
  
  <text x="35" y="262" font-family="Noto Sans KR, sans-serif" font-size="9" fill="#5D4037">노이즈 수준</text>
  <rect x="35" y="268" width="130" height="6" rx="3" fill="#FFF3E0"/>
  <rect x="35" y="268" width="90" height="6" rx="3" fill="#E53935"/>
  <circle cx="125" cy="271" r="5" fill="#E53935"/>
  <text x="175" y="274" text-anchor="middle" font-family="Noto Sans KR, sans-serif" font-size="9" font-weight="600" fill="#E53935">10%</text>
  
  <!-- 버튼들 (y:290) -->
  <rect x="35" y="290" width="155" height="30" rx="6" fill="#E53935"/>
  <text x="112" y="310" text-anchor="middle" font-family="Noto Sans KR, sans-serif" font-size="11" font-weight="600" fill="#FFFFFF">✨ 데이터 생성</text>
  
  <rect x="35" y="326" width="155" height="26" rx="5" fill="#FFFFFF" stroke="#FFCCBC"/>
  <text x="112" y="344" text-anchor="middle" font-family="Noto Sans KR, sans-serif" font-size="10" fill="#8D6E63">🗑️ 초기화</text>
  
  <!-- ===== 중앙: 차트 영역 (x:215, w:355) ===== -->
  <rect x="215" y="82" width="355" height="175" rx="10" fill="#FFFFFF" filter="url(#shadow)"/>
  
  <!-- 손실 그래프 (x:225, w:165, h:155) -->
  <rect x="225" y="92" width="165" height="155" rx="8" fill="#FAFAFA"/>
  <text x="307" y="112" text-anchor="middle" font-family="Noto Sans KR, sans-serif" font-size="10" font-weight="600" fill="#5D4037">📉 손실 그래프 (MSE)</text>
  
  <!-- 좌표축 -->
  <line x1="250" y1="125" x2="250" y2="230" stroke="#BCAAA4" stroke-width="1"/>
  <line x1="250" y1="230" x2="375" y2="230" stroke="#BCAAA4" stroke-width="1"/>
  <polyline points="258,145 288,170 318,190 348,210 368,218" fill="none" stroke="#E53935" stroke-width="2"/>
  <text x="245" y="140" text-anchor="end" font-family="Noto Sans KR, sans-serif" font-size="8" fill="#8D6E63">손실</text>
  <text x="365" y="242" text-anchor="end" font-family="Noto Sans KR, sans-serif" font-size="8" fill="#8D6E63">에포크</text>
  
  <!-- 산점도 (x:400, w:165, h:155) -->
  <rect x="400" y="92" width="165" height="155" rx="8" fill="#FAFAFA"/>
  <text x="482" y="112" text-anchor="middle" font-family="Noto Sans KR, sans-serif" font-size="10" font-weight="600" fill="#5D4037">📈 산점도 (회귀선)</text>
  
  <!-- 좌표축 -->
  <line x1="420" y1="125" x2="420" y2="230" stroke="#BCAAA4" stroke-width="1"/>
  <line x1="420" y1="230" x2="550" y2="230" stroke="#BCAAA4" stroke-width="1"/>
  
  <!-- 데이터 점 -->
  <circle cx="435" cy="218" r="4" fill="#43A047" opacity="0.7"/>
  <circle cx="455" cy="205" r="4" fill="#8BC34A" opacity="0.7"/>
  <circle cx="475" cy="188" r="4" fill="#FFC107" opacity="0.7"/>
  <circle cx="495" cy="170" r="4" fill="#FF9800" opacity="0.7"/>
  <circle cx="515" cy="155" r="4" fill="#E53935" opacity="0.7"/>
  <circle cx="535" cy="142" r="4" fill="#C62828" opacity="0.7"/>
  
  <!-- 회귀선 -->
  <line x1="428" y1="222" x2="545" y2="138" stroke="#E53935" stroke-width="2"/>
  
  <text x="415" y="138" text-anchor="end" font-family="Noto Sans KR, sans-serif" font-size="8" fill="#8D6E63">Y</text>
  <text x="545" y="242" text-anchor="end" font-family="Noto Sans KR, sans-serif" font-size="8" fill="#8D6E63">X →</text>
  
  <!-- ===== 결과 패널 (y:267, h:90) ===== -->
  <rect x="215" y="267" width="355" height="95" rx="10" fill="#FFFFFF" filter="url(#shadow)"/>
  <text x="392" y="288" text-anchor="middle" font-family="Noto Sans KR, sans-serif" font-size="10" font-weight="600" fill="#5D4037">학습 완료 후 표시되는 결과 패널</text>
  
  <!-- 3개 결과 박스 (y:298, h:54) -->
  <rect x="225" y="298" width="105" height="54" rx="6" fill="#E8F5E9"/>
  <text x="277" y="318" text-anchor="middle" font-family="Noto Sans KR, sans-serif" font-size="9" font-weight="600" fill="#2E7D32">📊 학습 결과</text>
  <text x="277" y="333" text-anchor="middle" font-family="Noto Sans KR, sans-serif" font-size="8" fill="#5D4037">에포크: 500</text>
  <text x="277" y="346" text-anchor="middle" font-family="Noto Sans KR, sans-serif" font-size="8" fill="#5D4037">R²: 0.923</text>
  
  <rect x="340" y="298" width="105" height="54" rx="6" fill="#E3F2FD"/>
  <text x="392" y="318" text-anchor="middle" font-family="Noto Sans KR, sans-serif" font-size="9" font-weight="600" fill="#1565C0">📏 오차 분석</text>
  <text x="392" y="333" text-anchor="middle" font-family="Noto Sans KR, sans-serif" font-size="8" fill="#5D4037">☐ 오차선 표시</text>
  <text x="392" y="346" text-anchor="middle" font-family="Noto Sans KR, sans-serif" font-size="8" fill="#5D4037">평균오차: 152원</text>
  
  <rect x="455" y="298" width="105" height="54" rx="6" fill="#FFF3E0"/>
  <text x="507" y="318" text-anchor="middle" font-family="Noto Sans KR, sans-serif" font-size="9" font-weight="600" fill="#E65100">📽️ 재생</text>
  <text x="507" y="333" text-anchor="middle" font-family="Noto Sans KR, sans-serif" font-size="8" fill="#5D4037">▶️ 재생 / ⏹️ 정지</text>
  <text x="507" y="346" text-anchor="middle" font-family="Noto Sans KR, sans-serif" font-size="8" fill="#5D4037">속도: ████░</text>
  
  <!-- ===== 오른쪽 패널: 학습 설정 (x:580, w:195) ===== -->
  <rect x="580" y="82" width="195" height="280" rx="10" fill="#FFFFFF" filter="url(#shadow)"/>
  
  <!-- 헤더 -->
  <rect x="580" y="82" width="195" height="28" rx="10" fill="#43A047"/>
  <rect x="580" y="100" width="195" height="10" fill="#43A047"/>
  <text x="677" y="102" text-anchor="middle" font-family="Noto Sans KR, sans-serif" font-size="11" font-weight="600" fill="#FFFFFF">⚙️ 학습 설정</text>
  
  <!-- 학습률 (y:122) -->
  <text x="595" y="138" font-family="Noto Sans KR, sans-serif" font-size="10" font-weight="500" fill="#5D4037">학습률 (Learning Rate)</text>
  <rect x="595" y="146" width="165" height="8" rx="4" fill="#E8F5E9"/>
  <rect x="595" y="146" width="85" height="8" rx="4" fill="#43A047"/>
  <circle cx="680" cy="150" r="6" fill="#43A047" stroke="#FFFFFF" stroke-width="2"/>
  <text x="595" y="170" font-family="Noto Sans KR, sans-serif" font-size="8" fill="#8D6E63">0.001</text>
  <text x="680" y="170" text-anchor="middle" font-family="Noto Sans KR, sans-serif" font-size="9" font-weight="600" fill="#E53935">0.01</text>
  <text x="760" y="170" text-anchor="end" font-family="Noto Sans KR, sans-serif" font-size="8" fill="#8D6E63">0.1</text>
  
  <!-- 에포크 (y:186) -->
  <text x="595" y="200" font-family="Noto Sans KR, sans-serif" font-size="10" font-weight="500" fill="#5D4037">에포크 (Epochs)</text>
  <rect x="595" y="208" width="165" height="8" rx="4" fill="#E8F5E9"/>
  <rect x="595" y="208" width="100" height="8" rx="4" fill="#43A047"/>
  <circle cx="695" cy="212" r="6" fill="#43A047" stroke="#FFFFFF" stroke-width="2"/>
  <text x="595" y="232" font-family="Noto Sans KR, sans-serif" font-size="8" fill="#8D6E63">100</text>
  <text x="695" y="232" text-anchor="middle" font-family="Noto Sans KR, sans-serif" font-size="9" font-weight="600" fill="#E53935">500회</text>
  <text x="760" y="232" text-anchor="end" font-family="Noto Sans KR, sans-serif" font-size="8" fill="#8D6E63">2000</text>
  
  <!-- 학습 실행 버튼 (y:250, h:42) -->
  <rect x="595" y="250" width="165" height="42" rx="8" fill="#43A047" filter="url(#shadow)"/>
  <text x="677" y="278" text-anchor="middle" font-family="Noto Sans KR, sans-serif" font-size="13" font-weight="700" fill="#FFFFFF">⚡ 학습 실행</text>
  
  <!-- 회귀식 표시 (y:302, h:50) -->
  <rect x="595" y="302" width="165" height="50" rx="6" fill="#FFF3E0"/>
  <text x="677" y="322" text-anchor="middle" font-family="Noto Sans KR, sans-serif" font-size="9" font-weight="600" fill="#5D4037">회귀식</text>
  <text x="677" y="342" text-anchor="middle" font-family="Noto Sans KR, sans-serif" font-size="12" font-weight="700" fill="#E53935">Y = 15.2 × X + 842</text>
  
  <!-- ===== 범례 (y:375) ===== -->
  <rect x="25" y="375" width="750" height="70" rx="8" fill="#FFFFFF" filter="url(#shadow)"/>
  <text x="400" y="396" text-anchor="middle" font-family="Noto Sans KR, sans-serif" font-size="11" font-weight="600" fill="#5D4037">📌 학습 모드 주요 기능</text>
  
  <!-- 범례 아이템들 (y:410) -->
  <circle cx="70" cy="425" r="8" fill="#E53935"/>
  <text x="85" y="429" font-family="Noto Sans KR, sans-serif" font-size="9" fill="#5D4037">데이터 생성</text>
  
  <circle cx="190" cy="425" r="8" fill="#43A047"/>
  <text x="205" y="429" font-family="Noto Sans KR, sans-serif" font-size="9" fill="#5D4037">학습 설정/실행</text>
  
  <circle cx="330" cy="425" r="8" fill="#FFC107"/>
  <text x="345" y="429" font-family="Noto Sans KR, sans-serif" font-size="9" fill="#5D4037">손실 그래프</text>
  
  <circle cx="450" cy="425" r="8" fill="#2196F3"/>
  <text x="465" y="429" font-family="Noto Sans KR, sans-serif" font-size="9" fill="#5D4037">오차 분석</text>
  
  <circle cx="560" cy="425" r="8" fill="#9C27B0"/>
  <text x="575" y="429" font-family="Noto Sans KR, sans-serif" font-size="9" fill="#5D4037">재생 기능</text>
  
  <rect x="660" y="417" width="50" height="16" rx="3" fill="none" stroke="#E53935" stroke-width="2"/>
  <text x="685" y="429" text-anchor="middle" font-family="Noto Sans KR, sans-serif" font-size="9" fill="#5D4037">회귀선</text>
</svg>
