<svg xmlns="http://www.w3.org/2000/svg" viewBox="0 0 900 600">
  <defs>
    <linearGradient id="bgGrad" x1="0%" y1="0%" x2="0%" y2="100%">
      <stop offset="0%" style="stop-color:#FFFBF5;stop-opacity:1" />
      <stop offset="100%" style="stop-color:#FFF3E0;stop-opacity:1" />
    </linearGradient>
    <filter id="shadow" x="-20%" y="-20%" width="140%" height="140%">
      <feDropShadow dx="2" dy="2" stdDeviation="3" flood-opacity="0.2"/>
    </filter>
  </defs>
  
  <!-- 배경 -->
  <rect width="900" height="600" fill="url(#bgGrad)"/>
  
  <!-- 제목 -->
  <rect x="200" y="15" width="500" height="50" rx="12" fill="#5D4037" filter="url(#shadow)"/>
  <text x="450" y="48" font-family="'Noto Sans KR', sans-serif" font-size="22" font-weight="bold" fill="white" text-anchor="middle">🔄 경사하강법 종류 비교</text>
  
  <!-- ========== 배치 경사하강법 ========== -->
  <rect x="30" y="85" width="270" height="320" rx="12" fill="white" stroke="#2196F3" stroke-width="3" filter="url(#shadow)"/>
  
  <!-- 헤더 -->
  <rect x="30" y="85" width="270" height="45" rx="12" fill="#2196F3"/>
  <text x="165" y="115" font-family="'Noto Sans KR', sans-serif" font-size="16" font-weight="bold" fill="white" text-anchor="middle">📦 배치 GD</text>
  
  <!-- 데이터 시각화 -->
  <rect x="50" y="145" width="230" height="80" rx="8" fill="#E3F2FD"/>
  <text x="165" y="165" font-family="'Noto Sans KR', sans-serif" font-size="11" fill="#1565C0" text-anchor="middle" font-weight="bold">전체 데이터셋 사용</text>
  
  <!-- 데이터 점들 (모두 사용) -->
  <circle cx="70" cy="195" r="8" fill="#2196F3"/>
  <circle cx="95" cy="195" r="8" fill="#2196F3"/>
  <circle cx="120" cy="195" r="8" fill="#2196F3"/>
  <circle cx="145" cy="195" r="8" fill="#2196F3"/>
  <circle cx="170" cy="195" r="8" fill="#2196F3"/>
  <circle cx="195" cy="195" r="8" fill="#2196F3"/>
  <circle cx="220" cy="195" r="8" fill="#2196F3"/>
  <circle cx="245" cy="195" r="8" fill="#2196F3"/>
  
  <!-- 화살표 -->
  <text x="165" y="245" font-family="'Noto Sans KR', sans-serif" font-size="20" fill="#2196F3" text-anchor="middle">↓</text>
  <text x="165" y="270" font-family="'Noto Sans KR', sans-serif" font-size="12" fill="#333" text-anchor="middle">1회 업데이트</text>
  
  <!-- 수렴 패턴 -->
  <rect x="50" y="285" width="230" height="50" rx="6" fill="#E3F2FD"/>
  <path d="M 70 320 Q 100 300 150 310 Q 200 315 250 315" stroke="#2196F3" stroke-width="3" fill="none"/>
  <text x="260" y="320" font-family="'Noto Sans KR', sans-serif" font-size="10" fill="#2196F3">안정</text>
  
  <!-- 특징 -->
  <text x="55" y="360" font-family="'Noto Sans KR', sans-serif" font-size="11" fill="#333">✓ 가장 안정적인 수렴</text>
  <text x="55" y="380" font-family="'Noto Sans KR', sans-serif" font-size="11" fill="#333">✗ 대용량 데이터에서 느림</text>
  <text x="55" y="400" font-family="'Noto Sans KR', sans-serif" font-size="11" fill="#666">적합: 소규모 데이터셋</text>
  
  <!-- ========== 미니배치 경사하강법 ========== -->
  <rect x="315" y="85" width="270" height="320" rx="12" fill="white" stroke="#43A047" stroke-width="3" filter="url(#shadow)"/>
  
  <!-- 헤더 -->
  <rect x="315" y="85" width="270" height="45" rx="12" fill="#43A047"/>
  <text x="450" y="115" font-family="'Noto Sans KR', sans-serif" font-size="16" font-weight="bold" fill="white" text-anchor="middle">📊 미니배치 GD</text>
  
  <!-- 데이터 시각화 -->
  <rect x="335" y="145" width="230" height="80" rx="8" fill="#E8F5E9"/>
  <text x="450" y="165" font-family="'Noto Sans KR', sans-serif" font-size="11" fill="#2E7D32" text-anchor="middle" font-weight="bold">배치 단위로 분할 (32~256)</text>
  
  <!-- 데이터 점들 (배치별 구분) -->
  <!-- 배치 1 -->
  <rect x="345" y="180" width="65" height="35" rx="4" fill="#C8E6C9" stroke="#43A047" stroke-width="1"/>
  <circle cx="358" cy="197" r="6" fill="#43A047"/>
  <circle cx="378" cy="197" r="6" fill="#43A047"/>
  <circle cx="398" cy="197" r="6" fill="#43A047"/>
  
  <!-- 배치 2 -->
  <rect x="420" y="180" width="65" height="35" rx="4" fill="#C8E6C9" stroke="#43A047" stroke-width="1"/>
  <circle cx="433" cy="197" r="6" fill="#43A047"/>
  <circle cx="453" cy="197" r="6" fill="#43A047"/>
  <circle cx="473" cy="197" r="6" fill="#43A047"/>
  
  <!-- 배치 3 -->
  <rect x="495" y="180" width="55" height="35" rx="4" fill="#C8E6C9" stroke="#43A047" stroke-width="1"/>
  <circle cx="510" cy="197" r="6" fill="#43A047"/>
  <circle cx="530" cy="197" r="6" fill="#43A047"/>
  
  <!-- 화살표 -->
  <text x="450" y="245" font-family="'Noto Sans KR', sans-serif" font-size="20" fill="#43A047" text-anchor="middle">↓ ↓ ↓</text>
  <text x="450" y="270" font-family="'Noto Sans KR', sans-serif" font-size="12" fill="#333" text-anchor="middle">n/배치 회 업데이트</text>
  
  <!-- 수렴 패턴 -->
  <rect x="335" y="285" width="230" height="50" rx="6" fill="#E8F5E9"/>
  <path d="M 355 325 Q 380 300 420 315 Q 460 305 500 310 Q 540 312 545 315" stroke="#43A047" stroke-width="3" fill="none"/>
  <text x="555" y="320" font-family="'Noto Sans KR', sans-serif" font-size="10" fill="#43A047">균형</text>
  
  <!-- 특징 -->
  <text x="340" y="360" font-family="'Noto Sans KR', sans-serif" font-size="11" fill="#333">✓ 속도와 안정성 균형</text>
  <text x="340" y="380" font-family="'Noto Sans KR', sans-serif" font-size="11" fill="#333">✓ GPU 병렬처리 효율적</text>
  <text x="340" y="400" font-family="'Noto Sans KR', sans-serif" font-size="11" fill="#2E7D32" font-weight="bold">★ 가장 많이 사용!</text>
  
  <!-- ========== 확률적 경사하강법 (SGD) ========== -->
  <rect x="600" y="85" width="270" height="320" rx="12" fill="white" stroke="#E53935" stroke-width="3" filter="url(#shadow)"/>
  
  <!-- 헤더 -->
  <rect x="600" y="85" width="270" height="45" rx="12" fill="#E53935"/>
  <text x="735" y="115" font-family="'Noto Sans KR', sans-serif" font-size="16" font-weight="bold" fill="white" text-anchor="middle">🎲 SGD (확률적)</text>
  
  <!-- 데이터 시각화 -->
  <rect x="620" y="145" width="230" height="80" rx="8" fill="#FFEBEE"/>
  <text x="735" y="165" font-family="'Noto Sans KR', sans-serif" font-size="11" fill="#C62828" text-anchor="middle" font-weight="bold">데이터 1개씩 사용</text>
  
  <!-- 데이터 점들 (하나씩) -->
  <circle cx="655" cy="197" r="8" fill="#E53935"/>
  <circle cx="685" cy="197" r="8" fill="#FFCDD2" stroke="#E53935" stroke-width="1"/>
  <circle cx="715" cy="197" r="8" fill="#FFCDD2" stroke="#E53935" stroke-width="1"/>
  <circle cx="745" cy="197" r="8" fill="#FFCDD2" stroke="#E53935" stroke-width="1"/>
  <circle cx="775" cy="197" r="8" fill="#FFCDD2" stroke="#E53935" stroke-width="1"/>
  <circle cx="805" cy="197" r="8" fill="#FFCDD2" stroke="#E53935" stroke-width="1"/>
  <circle cx="835" cy="197" r="8" fill="#FFCDD2" stroke="#E53935" stroke-width="1"/>
  
  <!-- 화살표 -->
  <text x="735" y="245" font-family="'Noto Sans KR', sans-serif" font-size="20" fill="#E53935" text-anchor="middle">↓↓↓↓↓↓↓</text>
  <text x="735" y="270" font-family="'Noto Sans KR', sans-serif" font-size="12" fill="#333" text-anchor="middle">n회 업데이트</text>
  
  <!-- 수렴 패턴 (불안정) -->
  <rect x="620" y="285" width="230" height="50" rx="6" fill="#FFEBEE"/>
  <path d="M 640 310 L 670 330 L 700 300 L 730 325 L 760 305 L 790 320 L 820 308" stroke="#E53935" stroke-width="3" fill="none"/>
  <text x="830" y="315" font-family="'Noto Sans KR', sans-serif" font-size="10" fill="#E53935">진동</text>
  
  <!-- 특징 -->
  <text x="625" y="360" font-family="'Noto Sans KR', sans-serif" font-size="11" fill="#333">✓ 가장 빠른 업데이트</text>
  <text x="625" y="380" font-family="'Noto Sans KR', sans-serif" font-size="11" fill="#333">✗ 수렴이 불안정</text>
  <text x="625" y="400" font-family="'Noto Sans KR', sans-serif" font-size="11" fill="#666">적합: 온라인 학습</text>
  
  <!-- ========== 하단 비교 표 ========== -->
  <rect x="30" y="425" width="840" height="160" rx="12" fill="white" stroke="#5D4037" stroke-width="2" filter="url(#shadow)"/>
  
  <text x="450" y="455" font-family="'Noto Sans KR', sans-serif" font-size="16" font-weight="bold" fill="#5D4037" text-anchor="middle">📋 세 가지 방식 비교표</text>
  <line x1="60" y1="465" x2="840" y2="465" stroke="#5D4037" stroke-width="1"/>
  
  <!-- 헤더 행 -->
  <text x="150" y="490" font-family="'Noto Sans KR', sans-serif" font-size="12" fill="#666" text-anchor="middle">방식</text>
  <text x="330" y="490" font-family="'Noto Sans KR', sans-serif" font-size="12" fill="#666" text-anchor="middle">1 에포크당 업데이트</text>
  <text x="500" y="490" font-family="'Noto Sans KR', sans-serif" font-size="12" fill="#666" text-anchor="middle">속도</text>
  <text x="630" y="490" font-family="'Noto Sans KR', sans-serif" font-size="12" fill="#666" text-anchor="middle">안정성</text>
  <text x="770" y="490" font-family="'Noto Sans KR', sans-serif" font-size="12" fill="#666" text-anchor="middle">메모리</text>
  
  <line x1="60" y1="500" x2="840" y2="500" stroke="#DDD" stroke-width="1"/>
  
  <!-- 배치 GD -->
  <circle cx="70" cy="520" r="8" fill="#2196F3"/>
  <text x="150" y="525" font-family="'Noto Sans KR', sans-serif" font-size="12" fill="#333" text-anchor="middle">배치 GD</text>
  <text x="330" y="525" font-family="'JetBrains Mono', monospace" font-size="12" fill="#333" text-anchor="middle">1회</text>
  <text x="500" y="525" font-family="'Noto Sans KR', sans-serif" font-size="12" fill="#E53935" text-anchor="middle">느림 ⭐</text>
  <text x="630" y="525" font-family="'Noto Sans KR', sans-serif" font-size="12" fill="#43A047" text-anchor="middle">높음 ⭐⭐⭐</text>
  <text x="770" y="525" font-family="'Noto Sans KR', sans-serif" font-size="12" fill="#E53935" text-anchor="middle">많음</text>
  
  <!-- 미니배치 GD -->
  <circle cx="70" cy="550" r="8" fill="#43A047"/>
  <text x="150" y="555" font-family="'Noto Sans KR', sans-serif" font-size="12" fill="#333" text-anchor="middle" font-weight="bold">미니배치 GD</text>
  <text x="330" y="555" font-family="'JetBrains Mono', monospace" font-size="12" fill="#333" text-anchor="middle">n/배치크기 회</text>
  <text x="500" y="555" font-family="'Noto Sans KR', sans-serif" font-size="12" fill="#43A047" text-anchor="middle" font-weight="bold">중간 ⭐⭐</text>
  <text x="630" y="555" font-family="'Noto Sans KR', sans-serif" font-size="12" fill="#43A047" text-anchor="middle" font-weight="bold">중간 ⭐⭐</text>
  <text x="770" y="555" font-family="'Noto Sans KR', sans-serif" font-size="12" fill="#FF9800" text-anchor="middle">중간</text>
  
  <!-- SGD -->
  <circle cx="70" cy="575" r="8" fill="#E53935"/>
  <text x="150" y="580" font-family="'Noto Sans KR', sans-serif" font-size="12" fill="#333" text-anchor="middle">SGD</text>
  <text x="330" y="580" font-family="'JetBrains Mono', monospace" font-size="12" fill="#333" text-anchor="middle">n회</text>
  <text x="500" y="580" font-family="'Noto Sans KR', sans-serif" font-size="12" fill="#43A047" text-anchor="middle">빠름 ⭐⭐⭐</text>
  <text x="630" y="580" font-family="'Noto Sans KR', sans-serif" font-size="12" fill="#E53935" text-anchor="middle">낮음 ⭐</text>
  <text x="770" y="580" font-family="'Noto Sans KR', sans-serif" font-size="12" fill="#43A047" text-anchor="middle">적음</text>
  
  <!-- 세로 구분선 -->
  <line x1="240" y1="475" x2="240" y2="585" stroke="#DDD" stroke-width="1"/>
  <line x1="420" y1="475" x2="420" y2="585" stroke="#DDD" stroke-width="1"/>
  <line x1="560" y1="475" x2="560" y2="585" stroke="#DDD" stroke-width="1"/>
  <line x1="700" y1="475" x2="700" y2="585" stroke="#DDD" stroke-width="1"/>
</svg>
