<svg xmlns="http://www.w3.org/2000/svg" viewBox="0 0 800 450">
  <defs>
    <linearGradient id="bgGrad" x1="0%" y1="0%" x2="100%" y2="100%">
      <stop offset="0%" style="stop-color:#FFFBF5"/>
      <stop offset="100%" style="stop-color:#FFF3E0"/>
    </linearGradient>
    <linearGradient id="headerGrad" x1="0%" y1="0%" x2="100%" y2="0%">
      <stop offset="0%" style="stop-color:#FFF8E1"/>
      <stop offset="100%" style="stop-color:#FFECB3"/>
    </linearGradient>
    <filter id="shadow" x="-5%" y="-5%" width="110%" height="115%">
      <feDropShadow dx="1" dy="2" stdDeviation="2" flood-opacity="0.10"/>
    </filter>
    <filter id="shadowLight" x="-5%" y="-5%" width="110%" height="115%">
      <feDropShadow dx="0" dy="1" stdDeviation="1" flood-opacity="0.06"/>
    </filter>
    <style>
      @import url('https://fonts.googleapis.com/css2?family=Noto+Sans+KR:wght@400;500;600;700&amp;display=swap');
      text { font-family: 'Noto Sans KR', sans-serif; }
    </style>
  </defs>

  <rect width="800" height="450" rx="12" fill="url(#bgGrad)"/>

  <rect x="16" y="12" width="768" height="52" rx="10" fill="url(#headerGrad)" filter="url(#shadow)"/>
  <text x="400" y="34" text-anchor="middle" font-size="15" font-weight="700" fill="#E53935">🎨 K-Means 클러스터링 시뮬레이터</text>
  <rect x="600" y="23" width="62" height="20" rx="10" fill="#E53935"/>
  <text x="631" y="37" text-anchor="middle" font-size="9" font-weight="600" fill="#FFF">v1.2.0.0</text>
  <text x="400" y="52" text-anchor="middle" font-size="9" fill="#795548">비지도 학습 — 군집화</text>

  <rect x="250" y="72" width="130" height="30" rx="15" fill="#E53935" filter="url(#shadowLight)"/>
  <text x="315" y="91" text-anchor="middle" font-size="11" font-weight="600" fill="#FFF">🧠 학습 모드</text>
  <rect x="390" y="72" width="130" height="30" rx="15" fill="#FFF" stroke="#E0E0E0" stroke-width="1" filter="url(#shadowLight)"/>
  <text x="455" y="91" text-anchor="middle" font-size="11" font-weight="500" fill="#888">🔮 추론 모드</text>

  <rect x="16" y="98" width="180" height="16" rx="8" fill="#E53935" opacity="0.9"/>
  <text x="106" y="109" text-anchor="middle" font-size="8" font-weight="600" fill="#FFF">① 데이터 설정</text>
  <rect x="206" y="98" width="370" height="16" rx="8" fill="#FF9800" opacity="0.9"/>
  <text x="391" y="109" text-anchor="middle" font-size="8" font-weight="600" fill="#FFF">② 클러스터 시각화</text>
  <rect x="586" y="98" width="198" height="16" rx="8" fill="#2E7D32" opacity="0.9"/>
  <text x="685" y="109" text-anchor="middle" font-size="8" font-weight="600" fill="#FFF">③ 학습 설정</text>

  <!-- 좌측 -->
  <rect x="16" y="118" width="180" height="280" rx="10" fill="#FFF" filter="url(#shadow)"/>
  <rect x="16" y="118" width="180" height="32" rx="10" fill="#FFF8E1"/>
  <rect x="16" y="140" width="180" height="10" fill="#FFF8E1"/>
  <text x="106" y="139" text-anchor="middle" font-size="12" font-weight="600" fill="#E53935">📋 데이터 설정</text>

  <text x="28" y="168" font-size="9" fill="#555">데이터 개수</text>
  <rect x="28" y="174" width="156" height="4" rx="2" fill="#E0E0E0"/>
  <circle cx="100" cy="176" r="6" fill="#E53935"/>
  <text x="100" y="196" text-anchor="middle" font-size="9" font-weight="600" fill="#E53935">100</text>

  <text x="28" y="216" font-size="9" fill="#555">K값 (클러스터 수)</text>
  <rect x="28" y="222" width="156" height="4" rx="2" fill="#E0E0E0"/>
  <circle cx="80" cy="224" r="6" fill="#E53935"/>
  <text x="80" y="244" text-anchor="middle" font-size="9" font-weight="600" fill="#E53935">3</text>

  <text x="28" y="264" font-size="9" fill="#555">분산도</text>
  <rect x="28" y="270" width="156" height="4" rx="2" fill="#E0E0E0"/>
  <circle cx="106" cy="272" r="6" fill="#E53935"/>
  <text x="106" y="292" text-anchor="middle" font-size="9" font-weight="600" fill="#E53935">중간</text>

  <rect x="28" y="310" width="156" height="28" rx="6" fill="#E53935"/>
  <text x="106" y="328" text-anchor="middle" font-size="10" font-weight="600" fill="#FFF">✨ 데이터 생성</text>

  <rect x="28" y="348" width="156" height="24" rx="6" fill="#FFF" stroke="#DDD" stroke-width="1"/>
  <text x="106" y="364" text-anchor="middle" font-size="9" fill="#888">🗑️ 초기화</text>

  <!-- 중앙 -->
  <rect x="206" y="118" width="370" height="180" rx="10" fill="#FFF" filter="url(#shadow)"/>
  <text x="391" y="140" text-anchor="middle" font-size="11" font-weight="600" fill="#333">📊 클러스터 시각화</text>

  <!-- 클러스터 산점도 -->
  <circle cx="260" cy="210" r="4" fill="#E53935" opacity="0.7"/>
  <circle cx="275" cy="225" r="4" fill="#E53935" opacity="0.7"/>
  <circle cx="250" cy="230" r="4" fill="#E53935" opacity="0.7"/>
  <circle cx="270" cy="200" r="4" fill="#E53935" opacity="0.7"/>
  <circle cx="255" cy="215" r="4" fill="#E53935" opacity="0.7"/>
  <circle cx="370" cy="260" r="4" fill="#2E7D32" opacity="0.7"/>
  <circle cx="385" cy="250" r="4" fill="#2E7D32" opacity="0.7"/>
  <circle cx="355" cy="270" r="4" fill="#2E7D32" opacity="0.7"/>
  <circle cx="380" cy="275" r="4" fill="#2E7D32" opacity="0.7"/>
  <circle cx="365" cy="245" r="4" fill="#2E7D32" opacity="0.7"/>
  <circle cx="480" cy="190" r="4" fill="#1976D2" opacity="0.7"/>
  <circle cx="495" cy="200" r="4" fill="#1976D2" opacity="0.7"/>
  <circle cx="470" cy="180" r="4" fill="#1976D2" opacity="0.7"/>
  <circle cx="500" cy="185" r="4" fill="#1976D2" opacity="0.7"/>
  <circle cx="485" cy="195" r="4" fill="#1976D2" opacity="0.7"/>

  <!-- 중심점 -->
  <circle cx="262" cy="216" r="8" fill="none" stroke="#E53935" stroke-width="1.2" stroke-dasharray="3,2"/>
  <line x1="258" y1="216" x2="266" y2="216" stroke="#E53935" stroke-width="1"/>
  <line x1="262" y1="212" x2="262" y2="220" stroke="#E53935" stroke-width="1"/>
  <circle cx="372" cy="260" r="8" fill="none" stroke="#2E7D32" stroke-width="1.2" stroke-dasharray="3,2"/>
  <line x1="368" y1="260" x2="376" y2="260" stroke="#2E7D32" stroke-width="1"/>
  <line x1="372" y1="256" x2="372" y2="264" stroke="#2E7D32" stroke-width="1"/>
  <circle cx="486" cy="190" r="8" fill="none" stroke="#1976D2" stroke-width="1.2" stroke-dasharray="3,2"/>
  <line x1="482" y1="190" x2="490" y2="190" stroke="#1976D2" stroke-width="1"/>
  <line x1="486" y1="186" x2="486" y2="194" stroke="#1976D2" stroke-width="1"/>

  <!-- 하단: 클러스터링 결과 -->
  <rect x="206" y="304" width="370" height="94" rx="10" fill="#FFF" filter="url(#shadow)"/>
  <rect x="206" y="290" width="370" height="16" rx="8" fill="#E65100" opacity="0.85"/>
  <text x="391" y="301" text-anchor="middle" font-size="8" font-weight="600" fill="#FFF">④ 클러스터링 결과</text>
  <rect x="206" y="304" width="370" height="28" rx="10" fill="#FFF8E1"/>
  <rect x="206" y="322" width="370" height="10" fill="#FFF8E1"/>
  <text x="391" y="323" text-anchor="middle" font-size="11" font-weight="600" fill="#E53935">📊 클러스터링 결과</text>

  <text x="220" y="350" font-size="9" font-weight="600" fill="#333">반복 횟수:</text>
  <text x="290" y="350" font-size="9" fill="#E53935">7</text>
  <text x="330" y="350" font-size="9" font-weight="600" fill="#333">Inertia:</text>
  <text x="380" y="350" font-size="9" fill="#E53935">245.3</text>
  <text x="440" y="350" font-size="9" font-weight="600" fill="#333">상태:</text>
  <text x="475" y="350" font-size="9" fill="#2E7D32">✅ 수렴</text>

  <rect x="220" y="362" width="100" height="22" rx="4" fill="#E3F2FD"/>
  <text x="270" y="377" text-anchor="middle" font-size="8" fill="#1565C0">▶️ 과정 재생</text>
  <rect x="330" y="362" width="100" height="22" rx="4" fill="#E3F2FD"/>
  <text x="380" y="377" text-anchor="middle" font-size="8" fill="#1565C0">⏩ 빠른 재생</text>

  <!-- 우측 -->
  <rect x="586" y="118" width="198" height="280" rx="10" fill="#FFF" filter="url(#shadow)"/>
  <rect x="586" y="118" width="198" height="32" rx="10" fill="#E8F5E9"/>
  <rect x="586" y="140" width="198" height="10" fill="#E8F5E9"/>
  <text x="685" y="139" text-anchor="middle" font-size="12" font-weight="600" fill="#2E7D32">⚙️ 학습 설정</text>

  <text x="600" y="168" font-size="9" fill="#555">최대 반복 횟수</text>
  <rect x="600" y="174" width="170" height="4" rx="2" fill="#E0E0E0"/>
  <circle cx="720" cy="176" r="6" fill="#E53935"/>
  <text x="720" y="196" text-anchor="middle" font-size="9" font-weight="600" fill="#E53935">100</text>

  <text x="600" y="218" font-size="9" fill="#555">초기화 방법</text>
  <rect x="600" y="224" width="170" height="24" rx="4" fill="#FFF" stroke="#DDD" stroke-width="1"/>
  <text x="610" y="240" font-size="9" fill="#333">K-means++</text>
  <text x="762" y="240" text-anchor="end" font-size="9" fill="#AAA">▼</text>

  <rect x="608" y="270" width="168" height="34" rx="8" fill="#E53935" filter="url(#shadowLight)"/>
  <text x="692" y="292" text-anchor="middle" font-size="12" font-weight="700" fill="#FFF">⚡ 클러스터링 실행</text>

  <rect x="608" y="314" width="168" height="26" rx="6" fill="#FFF" stroke="#DDD" stroke-width="1"/>
  <text x="692" y="331" text-anchor="middle" font-size="10" fill="#888">🔮 추론 모드 전환</text>
</svg>
