<svg xmlns="http://www.w3.org/2000/svg" viewBox="0 0 800 450">
  <defs>
    <linearGradient id="bgGrad" x1="0%" y1="0%" x2="100%" y2="100%">
      <stop offset="0%" style="stop-color:#FFFBF5"/>
      <stop offset="100%" style="stop-color:#FFF3E0"/>
    </linearGradient>
    <linearGradient id="headerGrad" x1="0%" y1="0%" x2="100%" y2="0%">
      <stop offset="0%" style="stop-color:#FFF8E1"/>
      <stop offset="100%" style="stop-color:#FFECB3"/>
    </linearGradient>
    <filter id="shadow" x="-5%" y="-5%" width="110%" height="115%">
      <feDropShadow dx="1" dy="2" stdDeviation="2" flood-opacity="0.10"/>
    </filter>
    <filter id="shadowLight" x="-5%" y="-5%" width="110%" height="115%">
      <feDropShadow dx="0" dy="1" stdDeviation="1" flood-opacity="0.06"/>
    </filter>
    <style>
      @import url('https://fonts.googleapis.com/css2?family=Noto+Sans+KR:wght@400;500;600;700&amp;display=swap');
      text { font-family: 'Noto Sans KR', sans-serif; }
    </style>
  </defs>

  <rect width="800" height="450" rx="12" fill="url(#bgGrad)"/>

  <!-- 헤더 -->
  <rect x="16" y="12" width="768" height="52" rx="10" fill="url(#headerGrad)" filter="url(#shadow)"/>
  <text x="400" y="34" text-anchor="middle" font-size="15" font-weight="700" fill="#7B1FA2">🎯 KNN 분류 시뮬레이터</text>
  <rect x="600" y="23" width="62" height="20" rx="10" fill="#7B1FA2"/>
  <text x="631" y="37" text-anchor="middle" font-size="9" font-weight="600" fill="#FFF">v1.2.0.1</text>
  <text x="400" y="52" text-anchor="middle" font-size="9" fill="#795548">K-최근접 이웃 분류</text>

  <!-- 모드 탭 -->
  <rect x="250" y="72" width="130" height="30" rx="15" fill="#7B1FA2" filter="url(#shadowLight)"/>
  <text x="315" y="91" text-anchor="middle" font-size="11" font-weight="600" fill="#FFF">🧠 학습 모드</text>
  <rect x="390" y="72" width="130" height="30" rx="15" fill="#FFF" stroke="#E0E0E0" stroke-width="1" filter="url(#shadowLight)"/>
  <text x="455" y="91" text-anchor="middle" font-size="11" font-weight="500" fill="#888">🔮 추론 모드</text>

  <!-- 레이블 -->
  <rect x="16" y="98" width="180" height="16" rx="8" fill="#7B1FA2" opacity="0.9"/>
  <text x="106" y="109" text-anchor="middle" font-size="8" font-weight="600" fill="#FFF">① 데이터 설정</text>
  <rect x="206" y="98" width="370" height="16" rx="8" fill="#FF5722" opacity="0.9"/>
  <text x="391" y="109" text-anchor="middle" font-size="8" font-weight="600" fill="#FFF">② 분류 시각화</text>
  <rect x="586" y="98" width="198" height="16" rx="8" fill="#2E7D32" opacity="0.9"/>
  <text x="685" y="109" text-anchor="middle" font-size="8" font-weight="600" fill="#FFF">③ 학습 설정</text>

  <!-- 좌측: 데이터 설정 -->
  <rect x="16" y="118" width="180" height="280" rx="10" fill="#FFF" filter="url(#shadow)"/>
  <rect x="16" y="118" width="180" height="32" rx="10" fill="#F3E5F5"/>
  <rect x="16" y="140" width="180" height="10" fill="#F3E5F5"/>
  <text x="106" y="139" text-anchor="middle" font-size="12" font-weight="600" fill="#7B1FA2">📋 데이터 설정</text>

  <!-- 탭 -->
  <rect x="28" y="158" width="48" height="20" rx="4" fill="#7B1FA2"/>
  <text x="52" y="172" text-anchor="middle" font-size="8" font-weight="600" fill="#FFF">프리셋</text>
  <rect x="80" y="158" width="36" height="20" rx="4" fill="#FFF" stroke="#DDD" stroke-width="1"/>
  <text x="98" y="172" text-anchor="middle" font-size="8" fill="#888">CSV</text>
  <rect x="120" y="158" width="36" height="20" rx="4" fill="#FFF" stroke="#DDD" stroke-width="1"/>
  <text x="138" y="172" text-anchor="middle" font-size="8" fill="#888">내장</text>

  <!-- 프리셋 버튼 -->
  <rect x="28" y="188" width="70" height="22" rx="4" fill="#F3E5F5" stroke="#CE93D8" stroke-width="1"/>
  <text x="63" y="203" text-anchor="middle" font-size="8" fill="#7B1FA2">🍎 과일</text>
  <rect x="104" y="188" width="70" height="22" rx="4" fill="#F3E5F5" stroke="#CE93D8" stroke-width="1"/>
  <text x="139" y="203" text-anchor="middle" font-size="8" fill="#7B1FA2">🐧 동물</text>
  <rect x="28" y="216" width="70" height="22" rx="4" fill="#F3E5F5" stroke="#CE93D8" stroke-width="1"/>
  <text x="63" y="231" text-anchor="middle" font-size="8" fill="#7B1FA2">🌸 꽃</text>
  <rect x="104" y="216" width="70" height="22" rx="4" fill="#F3E5F5" stroke="#CE93D8" stroke-width="1"/>
  <text x="139" y="231" text-anchor="middle" font-size="8" fill="#7B1FA2">🎲 랜덤</text>

  <!-- 데이터 생성 버튼 -->
  <rect x="28" y="252" width="156" height="28" rx="6" fill="#7B1FA2"/>
  <text x="106" y="270" text-anchor="middle" font-size="10" font-weight="600" fill="#FFF">✨ 데이터 생성</text>

  <!-- 데이터 정보 -->
  <text x="28" y="300" font-size="8" fill="#888">데이터: 60개 · 클래스: 3개</text>
  <rect x="28" y="308" width="156" height="48" rx="4" fill="#F5F5F5" stroke="#E0E0E0" stroke-width="1"/>
  <line x1="28" y1="322" x2="184" y2="322" stroke="#E0E0E0" stroke-width="1"/>
  <text x="60" y="319" text-anchor="middle" font-size="7" font-weight="600" fill="#555">X1</text>
  <text x="106" y="319" text-anchor="middle" font-size="7" font-weight="600" fill="#555">X2</text>
  <text x="155" y="319" text-anchor="middle" font-size="7" font-weight="600" fill="#555">클래스</text>
  <text x="60" y="336" text-anchor="middle" font-size="7" fill="#666">3.2</text>
  <text x="106" y="336" text-anchor="middle" font-size="7" fill="#666">1.8</text>
  <circle cx="155" cy="333" r="4" fill="#7B1FA2"/>
  <text x="60" y="349" text-anchor="middle" font-size="7" fill="#666">…</text>

  <!-- 중앙: 분류 시각화 -->
  <rect x="206" y="118" width="370" height="180" rx="10" fill="#FFF" filter="url(#shadow)"/>
  <text x="391" y="140" text-anchor="middle" font-size="11" font-weight="600" fill="#333">📊 분류 시각화 (산점도 + 결정 경계)</text>

  <!-- 산점도 스케치 (3클래스) -->
  <circle cx="260" cy="200" r="4" fill="#7B1FA2" opacity="0.7"/>
  <circle cx="275" cy="215" r="4" fill="#7B1FA2" opacity="0.7"/>
  <circle cx="250" cy="225" r="4" fill="#7B1FA2" opacity="0.7"/>
  <circle cx="280" cy="190" r="4" fill="#7B1FA2" opacity="0.7"/>
  <circle cx="350" cy="260" r="4" fill="#FF5722" opacity="0.7"/>
  <circle cx="370" cy="245" r="4" fill="#FF5722" opacity="0.7"/>
  <circle cx="340" cy="270" r="4" fill="#FF5722" opacity="0.7"/>
  <circle cx="365" cy="275" r="4" fill="#FF5722" opacity="0.7"/>
  <circle cx="460" cy="180" r="4" fill="#2E7D32" opacity="0.7"/>
  <circle cx="480" cy="195" r="4" fill="#2E7D32" opacity="0.7"/>
  <circle cx="470" cy="170" r="4" fill="#2E7D32" opacity="0.7"/>
  <circle cx="490" cy="185" r="4" fill="#2E7D32" opacity="0.7"/>

  <!-- 결정 경계 (점선) -->
  <path d="M220,240 Q320,190 400,240 Q450,260 520,170" fill="none" stroke="#999" stroke-width="1.5" stroke-dasharray="5,3"/>
  <path d="M300,155 Q350,230 420,285" fill="none" stroke="#999" stroke-width="1.5" stroke-dasharray="5,3"/>

  <!-- 하단 중앙: 모델 성능 -->
  <rect x="206" y="304" width="370" height="94" rx="10" fill="#FFF" filter="url(#shadow)"/>
  <rect x="206" y="290" width="370" height="16" rx="8" fill="#E65100" opacity="0.85"/>
  <text x="391" y="301" text-anchor="middle" font-size="8" font-weight="600" fill="#FFF">④ 모델 성능</text>
  <rect x="206" y="304" width="370" height="28" rx="10" fill="#F3E5F5"/>
  <rect x="206" y="322" width="370" height="10" fill="#F3E5F5"/>
  <text x="391" y="323" text-anchor="middle" font-size="11" font-weight="600" fill="#7B1FA2">📊 모델 성능</text>

  <text x="220" y="350" font-size="9" font-weight="600" fill="#333">정확도:</text>
  <text x="270" y="350" font-size="9" fill="#2E7D32">95.0%</text>
  <text x="220" y="368" font-size="9" font-weight="600" fill="#333">혼동 행렬:</text>
  <!-- 미니 혼동행렬 -->
  <rect x="296" y="340" width="22" height="16" rx="2" fill="#E8F5E9"/>
  <text x="307" y="352" text-anchor="middle" font-size="7" font-weight="600" fill="#2E7D32">10</text>
  <rect x="320" y="340" width="22" height="16" rx="2" fill="#FFEBEE"/>
  <text x="331" y="352" text-anchor="middle" font-size="7" fill="#C62828">0</text>
  <rect x="344" y="340" width="22" height="16" rx="2" fill="#FFEBEE"/>
  <text x="355" y="352" text-anchor="middle" font-size="7" fill="#C62828">1</text>
  <rect x="296" y="358" width="22" height="16" rx="2" fill="#FFEBEE"/>
  <text x="307" y="370" text-anchor="middle" font-size="7" fill="#C62828">0</text>
  <rect x="320" y="358" width="22" height="16" rx="2" fill="#E8F5E9"/>
  <text x="331" y="370" text-anchor="middle" font-size="7" font-weight="600" fill="#2E7D32">9</text>
  <rect x="344" y="358" width="22" height="16" rx="2" fill="#FFEBEE"/>
  <text x="355" y="370" text-anchor="middle" font-size="7" fill="#C62828">0</text>

  <text x="420" y="350" font-size="9" font-weight="600" fill="#333">K값:</text>
  <text x="445" y="350" font-size="9" fill="#7B1FA2">5</text>
  <text x="420" y="368" font-size="9" font-weight="600" fill="#333">거리:</text>
  <text x="450" y="368" font-size="9" fill="#7B1FA2">유클리드</text>

  <!-- 우측: 학습 설정 -->
  <rect x="586" y="118" width="198" height="280" rx="10" fill="#FFF" filter="url(#shadow)"/>
  <rect x="586" y="118" width="198" height="32" rx="10" fill="#E8F5E9"/>
  <rect x="586" y="140" width="198" height="10" fill="#E8F5E9"/>
  <text x="685" y="139" text-anchor="middle" font-size="12" font-weight="600" fill="#2E7D32">⚙️ 학습 설정</text>

  <!-- K값 슬라이더 -->
  <text x="600" y="168" font-size="9" fill="#555">K값 (이웃 수)</text>
  <rect x="600" y="174" width="170" height="4" rx="2" fill="#E0E0E0"/>
  <circle cx="660" cy="176" r="6" fill="#7B1FA2"/>
  <text x="660" y="196" text-anchor="middle" font-size="10" font-weight="600" fill="#7B1FA2">5</text>

  <!-- 거리 측정 -->
  <text x="600" y="218" font-size="9" fill="#555">거리 측정 방식</text>
  <rect x="600" y="224" width="170" height="24" rx="4" fill="#FFF" stroke="#DDD" stroke-width="1"/>
  <text x="610" y="240" font-size="9" fill="#333">유클리드</text>
  <text x="762" y="240" text-anchor="end" font-size="9" fill="#AAA">▼</text>

  <!-- 데이터 분할 -->
  <text x="600" y="270" font-size="9" fill="#555">🔀 데이터 분할 80:20</text>
  <rect x="600" y="278" width="136" height="10" rx="3" fill="#7B1FA2"/>
  <rect x="736" y="278" width="34" height="10" rx="3" fill="#FF5722"/>
  <text x="668" y="286" text-anchor="middle" font-size="7" font-weight="600" fill="#FFF">훈련</text>
  <text x="753" y="286" text-anchor="middle" font-size="7" font-weight="600" fill="#FFF">테스트</text>

  <!-- 학습 실행 버튼 -->
  <rect x="608" y="310" width="168" height="34" rx="8" fill="#7B1FA2" filter="url(#shadowLight)"/>
  <text x="692" y="332" text-anchor="middle" font-size="12" font-weight="700" fill="#FFF">⚡ 학습 실행</text>

  <rect x="608" y="352" width="168" height="26" rx="6" fill="#FFF" stroke="#DDD" stroke-width="1"/>
  <text x="692" y="369" text-anchor="middle" font-size="10" fill="#888">🗑️ 초기화</text>
</svg>
