<svg xmlns="http://www.w3.org/2000/svg" viewBox="0 0 800 500">
  <defs>
    <linearGradient id="bgGrad" x1="0%" y1="0%" x2="100%" y2="100%">
      <stop offset="0%" style="stop-color:#0d0d1a"/>
      <stop offset="100%" style="stop-color:#1a1a2e"/>
    </linearGradient>
    <linearGradient id="titleGrad" x1="0%" y1="0%" x2="100%" y2="0%">
      <stop offset="0%" style="stop-color:#2980b9"/>
      <stop offset="100%" style="stop-color:#c0392b"/>
    </linearGradient>
    <linearGradient id="btnGreen" x1="0%" y1="0%" x2="0%" y2="100%">
      <stop offset="0%" style="stop-color:#27ae60"/>
      <stop offset="100%" style="stop-color:#1e8449"/>
    </linearGradient>
    <linearGradient id="btnOrange" x1="0%" y1="0%" x2="100%" y2="100%">
      <stop offset="0%" style="stop-color:#d35400"/>
      <stop offset="100%" style="stop-color:#e67e22"/>
    </linearGradient>
    <linearGradient id="btnPurple" x1="0%" y1="0%" x2="100%" y2="100%">
      <stop offset="0%" style="stop-color:#8e44ad"/>
      <stop offset="100%" style="stop-color:#9b59b6"/>
    </linearGradient>
    <filter id="shadow">
      <feDropShadow dx="1" dy="2" stdDeviation="2" flood-opacity="0.25"/>
    </filter>
  </defs>

  <!-- 배경 -->
  <rect width="800" height="500" fill="url(#bgGrad)"/>

  <!-- ===== 헤더 ===== -->
  <text x="400" y="26" text-anchor="middle" font-family="Segoe UI, sans-serif" font-size="15" font-weight="700" fill="url(#titleGrad)">🤖 RL 틱택토</text>
  <rect x="495" y="13" width="52" height="20" rx="10" fill="rgba(255,255,255,0.08)" stroke="rgba(255,255,255,0.1)" stroke-width="0.5"/>
  <text x="521" y="26" text-anchor="middle" font-family="Segoe UI, sans-serif" font-size="7" font-weight="700" fill="#e0e0e0">☀️ 밝게</text>
  <rect x="553" y="13" width="56" height="20" rx="5" fill="rgba(230,126,34,0.6)"/>
  <text x="581" y="26" text-anchor="middle" font-family="Segoe UI, sans-serif" font-size="7" font-weight="700" fill="#fff">❓ 도움말</text>
  <rect x="615" y="13" width="56" height="20" rx="5" fill="rgba(241,196,15,0.6)"/>
  <text x="643" y="26" text-anchor="middle" font-family="Segoe UI, sans-serif" font-size="7" font-weight="700" fill="#fff">📋 보고서</text>

  <!-- ===== 좌측 패널 (width=130) ===== -->
  <!-- 미니 보드 (cellSize=14) -->
  <g transform="translate(30, 44)">
    <rect x="0" y="0" width="56" height="56" rx="6" fill="rgba(0,0,0,0.5)" stroke="rgba(255,255,255,0.1)" stroke-width="0.5"/>
    <g transform="translate(4,4)">
      <!-- row 0 -->
      <rect x="0" y="0" width="14" height="14" rx="3" fill="rgba(30,30,50,0.8)" stroke="rgba(255,255,255,0.08)" stroke-width="0.3"/>
      <rect x="17" y="0" width="14" height="14" rx="3" fill="rgba(41,128,185,0.15)" stroke="rgba(255,255,255,0.08)" stroke-width="0.3"/>
      <text x="24" y="11" text-anchor="middle" font-family="Segoe UI" font-size="8" font-weight="900" fill="#2980b9">X</text>
      <rect x="34" y="0" width="14" height="14" rx="3" fill="rgba(30,30,50,0.8)" stroke="rgba(255,255,255,0.08)" stroke-width="0.3"/>
      <!-- row 1 -->
      <rect x="0" y="17" width="14" height="14" rx="3" fill="rgba(192,57,43,0.15)" stroke="rgba(255,255,255,0.08)" stroke-width="0.3"/>
      <text x="7" y="28" text-anchor="middle" font-family="Segoe UI" font-size="8" font-weight="900" fill="#c0392b">O</text>
      <rect x="17" y="17" width="14" height="14" rx="3" fill="rgba(41,128,185,0.15)" stroke="rgba(255,255,255,0.08)" stroke-width="0.3"/>
      <text x="24" y="28" text-anchor="middle" font-family="Segoe UI" font-size="8" font-weight="900" fill="#2980b9">X</text>
      <rect x="34" y="17" width="14" height="14" rx="3" fill="rgba(30,30,50,0.8)" stroke="rgba(255,255,255,0.08)" stroke-width="0.3"/>
      <!-- row 2 -->
      <rect x="0" y="34" width="14" height="14" rx="3" fill="rgba(30,30,50,0.8)" stroke="rgba(255,255,255,0.08)" stroke-width="0.3"/>
      <rect x="17" y="34" width="14" height="14" rx="3" fill="rgba(192,57,43,0.15)" stroke="rgba(255,255,255,0.08)" stroke-width="0.3"/>
      <text x="24" y="45" text-anchor="middle" font-family="Segoe UI" font-size="8" font-weight="900" fill="#c0392b">O</text>
      <rect x="34" y="34" width="14" height="14" rx="3" fill="rgba(30,30,50,0.8)" stroke="rgba(255,255,255,0.08)" stroke-width="0.3"/>
    </g>
  </g>

  <!-- 속도 -->
  <text x="22" y="115" font-family="Segoe UI, sans-serif" font-size="7" fill="rgba(255,255,255,0.5)">속도: 1ms</text>
  <rect x="22" y="119" width="104" height="3" rx="1.5" fill="rgba(255,255,255,0.1)"/>
  <rect x="22" y="119" width="4" height="3" rx="1.5" fill="#00f5ff"/>
  <circle cx="26" cy="120.5" r="3.5" fill="#00f5ff"/>

  <!-- 학습 방식 패널 -->
  <rect x="18" y="130" width="112" height="78" rx="6" fill="rgba(0,0,0,0.3)"/>
  <text x="27" y="143" font-family="Segoe UI, sans-serif" font-size="7.5" font-weight="600" fill="rgba(255,255,255,0.7)">📋 학습 방식</text>
  <!-- 자기대국 (selected) -->
  <rect x="24" y="148" width="100" height="20" rx="4" fill="rgba(0,245,255,0.15)" stroke="rgba(0,245,255,0.3)" stroke-width="0.5"/>
  <circle cx="33" cy="158" r="3.5" fill="none" stroke="#00f5ff" stroke-width="1"/>
  <circle cx="33" cy="158" r="1.8" fill="#00f5ff"/>
  <text x="41" y="155" font-family="Segoe UI, sans-serif" font-size="7" font-weight="700" fill="#e0e0e0">🔄 자기대국</text>
  <text x="41" y="163" font-family="Segoe UI, sans-serif" font-size="5.5" fill="rgba(255,255,255,0.5)">X↔O 상호 학습</text>
  <!-- X 단독 -->
  <circle cx="33" cy="177" r="3.5" fill="none" stroke="rgba(255,255,255,0.3)" stroke-width="0.7"/>
  <text x="41" y="174" font-family="Segoe UI, sans-serif" font-size="7" font-weight="700" fill="#e0e0e0">🔵 X 단독</text>
  <text x="41" y="182" font-family="Segoe UI, sans-serif" font-size="5.5" fill="rgba(255,255,255,0.5)">X만 학습 (O=랜덤)</text>
  <!-- O 단독 -->
  <circle cx="33" cy="196" r="3.5" fill="none" stroke="rgba(255,255,255,0.3)" stroke-width="0.7"/>
  <text x="41" y="193" font-family="Segoe UI, sans-serif" font-size="7" font-weight="700" fill="#e0e0e0">🔴 O 단독</text>
  <text x="41" y="201" font-family="Segoe UI, sans-serif" font-size="5.5" fill="rgba(255,255,255,0.5)">O만 학습 (X=랜덤)</text>

  <!-- 파라미터 패널 -->
  <rect x="18" y="214" width="112" height="76" rx="6" fill="rgba(0,0,0,0.3)"/>
  <text x="27" y="227" font-family="Segoe UI, sans-serif" font-size="7.5" font-weight="600" fill="rgba(255,255,255,0.7)">⚙️ 파라미터</text>
  <rect x="96" y="219" width="28" height="11" rx="5.5" fill="#2ecc71"/>
  <text x="110" y="227" text-anchor="middle" font-family="Segoe UI, sans-serif" font-size="5.5" font-weight="700" fill="#fff">🔗동기</text>
  <!-- α -->
  <text x="27" y="239" font-family="Segoe UI, sans-serif" font-size="6.5" fill="rgba(255,255,255,0.5)">학습률 α</text>
  <text x="124" y="239" text-anchor="end" font-family="Segoe UI, sans-serif" font-size="6.5" fill="rgba(255,255,255,0.5)">0.30</text>
  <rect x="27" y="242" width="97" height="3" rx="1.5" fill="rgba(255,255,255,0.1)"/>
  <rect x="27" y="242" width="29" height="3" rx="1.5" fill="#2980b9"/>
  <!-- γ -->
  <text x="27" y="254" font-family="Segoe UI, sans-serif" font-size="6.5" fill="rgba(255,255,255,0.5)">할인율 γ</text>
  <text x="124" y="254" text-anchor="end" font-family="Segoe UI, sans-serif" font-size="6.5" fill="rgba(255,255,255,0.5)">0.90</text>
  <rect x="27" y="257" width="97" height="3" rx="1.5" fill="rgba(255,255,255,0.1)"/>
  <rect x="27" y="257" width="87" height="3" rx="1.5" fill="#2980b9"/>
  <!-- ε 감소율 -->
  <text x="27" y="269" font-family="Segoe UI, sans-serif" font-size="6.5" fill="rgba(255,255,255,0.5)">ε 감소율</text>
  <text x="124" y="269" text-anchor="end" font-family="Segoe UI, sans-serif" font-size="6.5" fill="rgba(255,255,255,0.5)">0.9995</text>
  <rect x="27" y="272" width="97" height="3" rx="1.5" fill="rgba(255,255,255,0.1)"/>
  <rect x="27" y="272" width="93" height="3" rx="1.5" fill="#2980b9"/>

  <!-- 액션 버튼 3개 -->
  <rect x="18" y="296" width="112" height="24" rx="6" fill="url(#btnGreen)" filter="url(#shadow)"/>
  <text x="74" y="312" text-anchor="middle" font-family="Segoe UI, sans-serif" font-size="8.5" font-weight="700" fill="#fff">▶️ 학습 시작</text>
  <rect x="18" y="324" width="112" height="24" rx="6" fill="url(#btnOrange)" filter="url(#shadow)"/>
  <text x="74" y="340" text-anchor="middle" font-family="Segoe UI, sans-serif" font-size="8.5" font-weight="700" fill="#fff">⚔️ AI 대전</text>
  <rect x="18" y="352" width="112" height="24" rx="6" fill="url(#btnPurple)" filter="url(#shadow)"/>
  <text x="74" y="368" text-anchor="middle" font-family="Segoe UI, sans-serif" font-size="8.5" font-weight="700" fill="#fff">👤 사람 대전</text>

  <!-- 저장 버튼 2×2 -->
  <rect x="18" y="382" width="53" height="22" rx="5" fill="rgba(39,174,96,0.12)" stroke="rgba(39,174,96,0.35)" stroke-width="0.5"/>
  <text x="44" y="396" text-anchor="middle" font-family="Segoe UI, sans-serif" font-size="9">💾</text>
  <rect x="77" y="382" width="53" height="22" rx="5" fill="rgba(142,68,173,0.12)" stroke="rgba(142,68,173,0.35)" stroke-width="0.5"/>
  <text x="103" y="396" text-anchor="middle" font-family="Segoe UI, sans-serif" font-size="9">📤</text>
  <rect x="18" y="408" width="53" height="22" rx="5" fill="rgba(41,128,185,0.12)" stroke="rgba(41,128,185,0.35)" stroke-width="0.5"/>
  <text x="44" y="422" text-anchor="middle" font-family="Segoe UI, sans-serif" font-size="9">📂</text>
  <rect x="77" y="408" width="53" height="22" rx="5" fill="rgba(211,84,0,0.12)" stroke="rgba(211,84,0,0.35)" stroke-width="0.5"/>
  <text x="103" y="422" text-anchor="middle" font-family="Segoe UI, sans-serif" font-size="9">📥</text>

  <!-- 초기화 버튼 -->
  <rect x="18" y="436" width="112" height="18" rx="5" fill="rgba(192,57,43,0.5)"/>
  <text x="74" y="448" text-anchor="middle" font-family="Segoe UI, sans-serif" font-size="7.5" font-weight="700" fill="#fff">🗑️ 초기화</text>

  <!-- ===== 우측 대시보드 (flex:1) ===== -->
  <!-- 학습 단계 진행바 -->
  <rect x="145" y="44" width="640" height="30" rx="6" fill="rgba(0,0,0,0.4)"/>
  <text x="155" y="56" font-family="Segoe UI, sans-serif" font-size="8" font-weight="700" fill="#e67e22">🔍 탐색</text>
  <text x="196" y="56" font-family="Segoe UI, sans-serif" font-size="7" fill="#27ae60">● 학습 중</text>
  <text x="770" y="56" text-anchor="end" font-family="Segoe UI, sans-serif" font-size="7" fill="rgba(255,255,255,0.5)">#8,432 | 12,500/sec</text>
  <!-- bar -->
  <rect x="155" y="61" width="620" height="8" rx="4" fill="rgba(0,0,0,0.3)"/>
  <rect x="155" y="61" width="31" height="8" fill="#e74c3c"/>
  <text x="170" y="67.5" text-anchor="middle" font-family="Segoe UI, sans-serif" font-size="5">🌱</text>
  <rect x="186" y="61" width="186" height="8" fill="rgba(230,126,34,0.35)"/>
  <text x="279" y="67.5" text-anchor="middle" font-family="Segoe UI, sans-serif" font-size="5">🔍</text>
  <rect x="372" y="61" width="155" height="8" fill="transparent"/>
  <text x="449" y="67.5" text-anchor="middle" font-family="Segoe UI, sans-serif" font-size="5" fill="rgba(255,255,255,0.25)">📚</text>
  <text x="604" y="67.5" text-anchor="middle" font-family="Segoe UI, sans-serif" font-size="5" fill="rgba(255,255,255,0.25)">🎯</text>
  <text x="730" y="67.5" text-anchor="middle" font-family="Segoe UI, sans-serif" font-size="5" fill="rgba(255,255,255,0.25)">🏆</text>
  <rect x="207" y="61" width="2" height="8" fill="#e0e0e0" opacity="0.7"/>

  <!-- 지표 카드 6개 (gridTemplateColumns: repeat(6, 1fr)) -->
  <g transform="translate(145, 80)">
    <rect x="0" y="0" width="103" height="32" rx="5" fill="rgba(41,128,185,0.1)" stroke="rgba(41,128,185,0.25)" stroke-width="0.5"/>
    <text x="51" y="12" text-anchor="middle" font-family="Segoe UI, sans-serif" font-size="6" fill="rgba(255,255,255,0.5)">🔵 X 승률</text>
    <text x="51" y="27" text-anchor="middle" font-family="Segoe UI, sans-serif" font-size="11" font-weight="700" fill="#2980b9">42%</text>

    <rect x="107" y="0" width="103" height="32" rx="5" fill="rgba(192,57,43,0.1)" stroke="rgba(192,57,43,0.25)" stroke-width="0.5"/>
    <text x="158" y="12" text-anchor="middle" font-family="Segoe UI, sans-serif" font-size="6" fill="rgba(255,255,255,0.5)">🔴 O 승률</text>
    <text x="158" y="27" text-anchor="middle" font-family="Segoe UI, sans-serif" font-size="11" font-weight="700" fill="#c0392b">35%</text>

    <rect x="214" y="0" width="103" height="32" rx="5" fill="rgba(241,196,15,0.1)" stroke="rgba(241,196,15,0.25)" stroke-width="0.5"/>
    <text x="265" y="12" text-anchor="middle" font-family="Segoe UI, sans-serif" font-size="6" fill="rgba(255,255,255,0.5)">🤝 무승부</text>
    <text x="265" y="27" text-anchor="middle" font-family="Segoe UI, sans-serif" font-size="11" font-weight="700" fill="#f1c40f">23%</text>

    <rect x="321" y="0" width="103" height="32" rx="5" fill="rgba(241,196,15,0.1)" stroke="rgba(241,196,15,0.25)" stroke-width="0.5"/>
    <text x="372" y="12" text-anchor="middle" font-family="Segoe UI, sans-serif" font-size="6" fill="rgba(255,255,255,0.5)">🎲 ε</text>
    <text x="372" y="27" text-anchor="middle" font-family="Segoe UI, sans-serif" font-size="11" font-weight="700" fill="#f1c40f">65%</text>

    <rect x="428" y="0" width="103" height="32" rx="5" fill="rgba(230,126,34,0.1)" stroke="rgba(230,126,34,0.25)" stroke-width="0.5"/>
    <text x="479" y="12" text-anchor="middle" font-family="Segoe UI, sans-serif" font-size="6" fill="rgba(255,255,255,0.5)">⭐ 강도</text>
    <text x="479" y="27" text-anchor="middle" font-family="Segoe UI, sans-serif" font-size="11" font-weight="700" fill="#e67e22">62</text>

    <rect x="535" y="0" width="103" height="32" rx="5" fill="rgba(230,126,34,0.1)" stroke="rgba(230,126,34,0.25)" stroke-width="0.5"/>
    <text x="586" y="12" text-anchor="middle" font-family="Segoe UI, sans-serif" font-size="6" fill="rgba(255,255,255,0.5)">🎖️ 등급</text>
    <text x="586" y="27" text-anchor="middle" font-family="Segoe UI, sans-serif" font-size="11" font-weight="700" fill="#e67e22">C</text>
  </g>

  <!-- 그래프 2×2 그리드 -->
  <!-- 좌상: X/O 승률 -->
  <rect x="145" y="118" width="315" height="110" rx="6" fill="rgba(0,0,0,0.3)"/>
  <text x="155" y="133" font-family="Segoe UI, sans-serif" font-size="7" font-weight="700" fill="#e0e0e0">🔵 X 승률 (%)</text>
  <text x="448" y="133" text-anchor="end" font-family="Segoe UI, sans-serif" font-size="6" fill="rgba(255,255,255,0.4)">avg: 42.1</text>
  <g transform="translate(155, 137)">
    <rect x="0" y="0" width="295" height="28" rx="3" fill="rgba(0,0,0,0.3)"/>
    <polyline points="3,20 20,18 40,15 60,12 80,14 100,10 120,8 140,7 160,9 180,6 200,8 220,5 240,7 260,6 280,5" fill="none" stroke="#2980b9" stroke-width="1.5" stroke-linecap="round" stroke-linejoin="round"/>
    <polyline points="3,20 20,18 40,15 60,12 80,14 100,10 120,8 140,7 160,9 180,6 200,8 220,5 240,7 260,6 280,5" fill="url(#xFill)" opacity="0.15"/>
  </g>
  <text x="155" y="178" font-family="Segoe UI, sans-serif" font-size="7" font-weight="700" fill="#e0e0e0">🔴 O 승률 (%)</text>
  <g transform="translate(155, 182)">
    <rect x="0" y="0" width="295" height="28" rx="3" fill="rgba(0,0,0,0.3)"/>
    <polyline points="3,12 20,14 40,16 60,13 80,11 100,14 120,10 140,12 160,9 180,11 200,10 220,11 240,9 260,10 280,8" fill="none" stroke="#c0392b" stroke-width="1.5" stroke-linecap="round" stroke-linejoin="round"/>
  </g>

  <!-- 우상: 무승부/ε -->
  <rect x="468" y="118" width="315" height="110" rx="6" fill="rgba(0,0,0,0.3)"/>
  <text x="478" y="133" font-family="Segoe UI, sans-serif" font-size="7" font-weight="700" fill="#e0e0e0">🤝 무승부율 (%)</text>
  <g transform="translate(478, 137)">
    <rect x="0" y="0" width="295" height="28" rx="3" fill="rgba(0,0,0,0.3)"/>
    <polyline points="3,24 20,22 40,20 60,18 80,16 100,14 120,12 140,10 160,8 180,9 200,7 220,6 240,7 260,5 280,6" fill="none" stroke="#f1c40f" stroke-width="1.5" stroke-linecap="round" stroke-linejoin="round"/>
  </g>
  <text x="478" y="178" font-family="Segoe UI, sans-serif" font-size="7" font-weight="700" fill="#e0e0e0">🎲 탐험률 ε (%)</text>
  <g transform="translate(478, 182)">
    <rect x="0" y="0" width="295" height="28" rx="3" fill="rgba(0,0,0,0.3)"/>
    <polyline points="3,3 20,4 40,5 60,7 80,9 100,11 120,13 140,14 160,16 180,18 200,19 220,20 240,21 260,22 280,23" fill="none" stroke="#8e44ad" stroke-width="1.5" stroke-linecap="round" stroke-linejoin="round"/>
  </g>

  <!-- 좌하: 강도/Q-상태 -->
  <rect x="145" y="236" width="315" height="110" rx="6" fill="rgba(0,0,0,0.3)"/>
  <text x="155" y="251" font-family="Segoe UI, sans-serif" font-size="7" font-weight="700" fill="#e0e0e0">⭐ X 강도 (vs 랜덤)</text>
  <g transform="translate(155, 255)">
    <rect x="0" y="0" width="295" height="32" rx="3" fill="rgba(0,0,0,0.3)"/>
    <polyline points="3,26 20,23 40,20 60,17 80,14 100,12 120,10 140,8 160,7 180,6 200,5 220,5 240,4 260,4 280,4" fill="none" stroke="#27ae60" stroke-width="1.5" stroke-linecap="round" stroke-linejoin="round"/>
  </g>
  <text x="155" y="300" font-family="Segoe UI, sans-serif" font-size="7" font-weight="700" fill="#e0e0e0">📚 Q-상태 수 (대칭 압축)</text>
  <g transform="translate(155, 304)">
    <rect x="0" y="0" width="295" height="28" rx="3" fill="rgba(0,0,0,0.3)"/>
    <polyline points="3,24 20,18 40,14 60,10 80,8 100,6 120,5 140,4 160,3 180,3 200,3 220,3 240,3 260,3 280,3" fill="none" stroke="#00f5ff" stroke-width="1.5" stroke-linecap="round" stroke-linejoin="round"/>
  </g>

  <!-- 우하: 인사이트 + 통계 -->
  <!-- 첫수 선호도 -->
  <rect x="468" y="236" width="315" height="56" rx="6" fill="rgba(0,0,0,0.4)"/>
  <text x="478" y="250" font-family="Segoe UI, sans-serif" font-size="7" font-weight="700" fill="#e0e0e0">🧠 X의 첫수 선호도</text>
  <text x="478" y="263" font-family="Segoe UI, sans-serif" font-size="6.5" fill="rgba(255,255,255,0.7)">🎯 중앙</text>
  <rect x="515" y="257" width="215" height="4.5" rx="2" fill="rgba(0,0,0,0.3)"/>
  <rect x="515" y="257" width="170" height="4.5" rx="2" fill="#2980b9"/>
  <text x="775" y="263" text-anchor="end" font-family="Segoe UI, sans-serif" font-size="5.5" fill="rgba(255,255,255,0.4)">0.42</text>
  <text x="478" y="275" font-family="Segoe UI, sans-serif" font-size="6.5" fill="rgba(255,255,255,0.7)">📐 모서리</text>
  <rect x="515" y="269" width="215" height="4.5" rx="2" fill="rgba(0,0,0,0.3)"/>
  <rect x="515" y="269" width="100" height="4.5" rx="2" fill="#2980b9"/>
  <text x="775" y="275" text-anchor="end" font-family="Segoe UI, sans-serif" font-size="5.5" fill="rgba(255,255,255,0.4)">0.18</text>
  <text x="478" y="287" font-family="Segoe UI, sans-serif" font-size="6.5" fill="rgba(255,255,255,0.7)">➖ 변</text>
  <rect x="515" y="281" width="215" height="4.5" rx="2" fill="rgba(0,0,0,0.3)"/>
  <rect x="515" y="281" width="45" height="4.5" rx="2" fill="#2980b9"/>
  <text x="775" y="287" text-anchor="end" font-family="Segoe UI, sans-serif" font-size="5.5" fill="rgba(255,255,255,0.4)">-0.05</text>

  <!-- 학습 통계 -->
  <rect x="468" y="298" width="315" height="105" rx="6" fill="rgba(0,0,0,0.4)"/>
  <text x="478" y="312" font-family="Segoe UI, sans-serif" font-size="7" font-weight="700" fill="#e0e0e0">📊 학습 통계</text>
  <g transform="translate(478, 318)">
    <text x="0" y="8" font-family="Segoe UI, sans-serif" font-size="7" fill="rgba(255,255,255,0.5)">X Q-상태</text>
    <text x="295" y="8" text-anchor="end" font-family="Segoe UI, sans-serif" font-size="7" font-weight="700" fill="#2980b9">412</text>
    <line x1="0" y1="12" x2="295" y2="12" stroke="rgba(255,255,255,0.08)" stroke-width="0.4"/>
    <text x="0" y="23" font-family="Segoe UI, sans-serif" font-size="7" fill="rgba(255,255,255,0.5)">O Q-상태</text>
    <text x="295" y="23" text-anchor="end" font-family="Segoe UI, sans-serif" font-size="7" font-weight="700" fill="#c0392b">389</text>
    <line x1="0" y1="27" x2="295" y2="27" stroke="rgba(255,255,255,0.08)" stroke-width="0.4"/>
    <text x="0" y="38" font-family="Segoe UI, sans-serif" font-size="7" fill="rgba(255,255,255,0.5)">X ε</text>
    <text x="295" y="38" text-anchor="end" font-family="Segoe UI, sans-serif" font-size="7" font-weight="700" fill="#2980b9">64.53%</text>
    <line x1="0" y1="42" x2="295" y2="42" stroke="rgba(255,255,255,0.08)" stroke-width="0.4"/>
    <text x="0" y="53" font-family="Segoe UI, sans-serif" font-size="7" fill="rgba(255,255,255,0.5)">O ε</text>
    <text x="295" y="53" text-anchor="end" font-family="Segoe UI, sans-serif" font-size="7" font-weight="700" fill="#c0392b">64.53%</text>
    <line x1="0" y1="57" x2="295" y2="57" stroke="rgba(255,255,255,0.08)" stroke-width="0.4"/>
    <text x="0" y="68" font-family="Segoe UI, sans-serif" font-size="7" fill="rgba(255,255,255,0.5)">학습 속도</text>
    <text x="295" y="68" text-anchor="end" font-family="Segoe UI, sans-serif" font-size="7" font-weight="700" fill="#00f5ff">12,500/sec</text>
    <line x1="0" y1="72" x2="295" y2="72" stroke="rgba(255,255,255,0.08)" stroke-width="0.4"/>
    <text x="0" y="83" font-family="Segoe UI, sans-serif" font-size="7" fill="rgba(255,255,255,0.5)">Step 패널티</text>
    <text x="295" y="83" text-anchor="end" font-family="Segoe UI, sans-serif" font-size="7" font-weight="700" fill="#d35400">-0.01</text>
  </g>

  <!-- 영역 라벨 (반투명) -->
  <text x="74" y="495" text-anchor="middle" font-family="Segoe UI, sans-serif" font-size="7" fill="rgba(255,255,255,0.15)">◄ 좌측 컨트롤 ►</text>
  <text x="470" y="495" text-anchor="middle" font-family="Segoe UI, sans-serif" font-size="7" fill="rgba(255,255,255,0.15)">◄ 우측 대시보드 ►</text>

  <!-- 캡션 -->
  <text x="400" y="490" text-anchor="middle" font-family="Noto Sans KR, Segoe UI, sans-serif" font-size="9" fill="rgba(255,255,255,0.35)">그림 1. RL 틱택토 — 대시보드 모드 (다크 테마)</text>
</svg>
