<svg xmlns="http://www.w3.org/2000/svg" viewBox="0 0 600 350" font-family="Noto Sans CJK KR">
  <rect width="600" height="350" fill="white"/>
  <text x="300" y="30" text-anchor="middle" fill="#2c3e50" font-size="14" font-weight="bold">문자 "A"의 5×5 비트맵 표현</text>

  <!-- 왼쪽: LED 시각적 표현 -->
  <text x="130" y="60" text-anchor="middle" fill="#555" font-size="11" font-weight="bold">시각적 패턴</text>
  <rect x="45" y="70" width="170" height="170" rx="10" fill="#111"/>

  <g transform="translate(60, 85)">
    <!-- Row 0: 0 1 1 1 0 -->
    <circle cx="10" cy="10" r="12" fill="#444"/><circle cx="42" cy="10" r="12" fill="#ff0000"/><circle cx="74" cy="10" r="12" fill="#ff0000"/><circle cx="106" cy="10" r="12" fill="#ff0000"/><circle cx="138" cy="10" r="12" fill="#444"/>
    <!-- Row 1: 1 0 0 0 1 -->
    <circle cx="10" cy="40" r="12" fill="#ff0000"/><circle cx="42" cy="40" r="12" fill="#444"/><circle cx="74" cy="40" r="12" fill="#444"/><circle cx="106" cy="40" r="12" fill="#444"/><circle cx="138" cy="40" r="12" fill="#ff0000"/>
    <!-- Row 2: 1 1 1 1 1 -->
    <circle cx="10" cy="70" r="12" fill="#ff0000"/><circle cx="42" cy="70" r="12" fill="#ff0000"/><circle cx="74" cy="70" r="12" fill="#ff0000"/><circle cx="106" cy="70" r="12" fill="#ff0000"/><circle cx="138" cy="70" r="12" fill="#ff0000"/>
    <!-- Row 3: 1 0 0 0 1 -->
    <circle cx="10" cy="100" r="12" fill="#ff0000"/><circle cx="42" cy="100" r="12" fill="#444"/><circle cx="74" cy="100" r="12" fill="#444"/><circle cx="106" cy="100" r="12" fill="#444"/><circle cx="138" cy="100" r="12" fill="#ff0000"/>
    <!-- Row 4: 1 0 0 0 1 -->
    <circle cx="10" cy="130" r="12" fill="#ff0000"/><circle cx="42" cy="130" r="12" fill="#444"/><circle cx="74" cy="130" r="12" fill="#444"/><circle cx="106" cy="130" r="12" fill="#444"/><circle cx="138" cy="130" r="12" fill="#ff0000"/>
  </g>

  <!-- 화살표 -->
  <polygon points="230,165 260,155 260,160 290,160 290,170 260,170 260,175" fill="#3498db"/>
  <text x="260" y="150" text-anchor="middle" fill="#3498db" font-size="10">변환</text>

  <!-- 오른쪽: 이진 배열 -->
  <text x="440" y="60" text-anchor="middle" fill="#555" font-size="11" font-weight="bold">이진 배열 (0/1)</text>

  <g transform="translate(325, 80)" font-size="18" font-weight="bold" text-anchor="middle">
    <!-- Row 0 -->
    <rect x="0" y="0" width="36" height="30" rx="3" fill="#f0f0f0" stroke="#ddd"/><text x="18" y="22" fill="#999">0</text>
    <rect x="42" y="0" width="36" height="30" rx="3" fill="#ffe0e0" stroke="#e74c3c"/><text x="60" y="22" fill="#e74c3c">1</text>
    <rect x="84" y="0" width="36" height="30" rx="3" fill="#ffe0e0" stroke="#e74c3c"/><text x="102" y="22" fill="#e74c3c">1</text>
    <rect x="126" y="0" width="36" height="30" rx="3" fill="#ffe0e0" stroke="#e74c3c"/><text x="144" y="22" fill="#e74c3c">1</text>
    <rect x="168" y="0" width="36" height="30" rx="3" fill="#f0f0f0" stroke="#ddd"/><text x="186" y="22" fill="#999">0</text>

    <!-- Row 1 -->
    <rect x="0" y="36" width="36" height="30" rx="3" fill="#ffe0e0" stroke="#e74c3c"/><text x="18" y="58" fill="#e74c3c">1</text>
    <rect x="42" y="36" width="36" height="30" rx="3" fill="#f0f0f0" stroke="#ddd"/><text x="60" y="58" fill="#999">0</text>
    <rect x="84" y="36" width="36" height="30" rx="3" fill="#f0f0f0" stroke="#ddd"/><text x="102" y="58" fill="#999">0</text>
    <rect x="126" y="36" width="36" height="30" rx="3" fill="#f0f0f0" stroke="#ddd"/><text x="144" y="58" fill="#999">0</text>
    <rect x="168" y="36" width="36" height="30" rx="3" fill="#ffe0e0" stroke="#e74c3c"/><text x="186" y="58" fill="#e74c3c">1</text>

    <!-- Row 2 -->
    <rect x="0" y="72" width="36" height="30" rx="3" fill="#ffe0e0" stroke="#e74c3c"/><text x="18" y="94" fill="#e74c3c">1</text>
    <rect x="42" y="72" width="36" height="30" rx="3" fill="#ffe0e0" stroke="#e74c3c"/><text x="60" y="94" fill="#e74c3c">1</text>
    <rect x="84" y="72" width="36" height="30" rx="3" fill="#ffe0e0" stroke="#e74c3c"/><text x="102" y="94" fill="#e74c3c">1</text>
    <rect x="126" y="72" width="36" height="30" rx="3" fill="#ffe0e0" stroke="#e74c3c"/><text x="144" y="94" fill="#e74c3c">1</text>
    <rect x="168" y="72" width="36" height="30" rx="3" fill="#ffe0e0" stroke="#e74c3c"/><text x="186" y="94" fill="#e74c3c">1</text>

    <!-- Row 3 -->
    <rect x="0" y="108" width="36" height="30" rx="3" fill="#ffe0e0" stroke="#e74c3c"/><text x="18" y="130" fill="#e74c3c">1</text>
    <rect x="42" y="108" width="36" height="30" rx="3" fill="#f0f0f0" stroke="#ddd"/><text x="60" y="130" fill="#999">0</text>
    <rect x="84" y="108" width="36" height="30" rx="3" fill="#f0f0f0" stroke="#ddd"/><text x="102" y="130" fill="#999">0</text>
    <rect x="126" y="108" width="36" height="30" rx="3" fill="#f0f0f0" stroke="#ddd"/><text x="144" y="130" fill="#999">0</text>
    <rect x="168" y="108" width="36" height="30" rx="3" fill="#ffe0e0" stroke="#e74c3c"/><text x="186" y="130" fill="#e74c3c">1</text>

    <!-- Row 4 -->
    <rect x="0" y="144" width="36" height="30" rx="3" fill="#ffe0e0" stroke="#e74c3c"/><text x="18" y="166" fill="#e74c3c">1</text>
    <rect x="42" y="144" width="36" height="30" rx="3" fill="#f0f0f0" stroke="#ddd"/><text x="60" y="166" fill="#999">0</text>
    <rect x="84" y="144" width="36" height="30" rx="3" fill="#f0f0f0" stroke="#ddd"/><text x="102" y="166" fill="#999">0</text>
    <rect x="126" y="144" width="36" height="30" rx="3" fill="#f0f0f0" stroke="#ddd"/><text x="144" y="166" fill="#999">0</text>
    <rect x="168" y="144" width="36" height="30" rx="3" fill="#ffe0e0" stroke="#e74c3c"/><text x="186" y="166" fill="#e74c3c">1</text>
  </g>

  <!-- 범례 -->
  <circle cx="120" cy="280" r="10" fill="#ff0000"/><text x="140" y="285" fill="#555" font-size="10">= LED 켜짐 (1)</text>
  <circle cx="280" cy="280" r="10" fill="#444"/><text x="300" y="285" fill="#555" font-size="10">= LED 꺼짐 (0)</text>

  <!-- 코드 스니펫 -->
  <rect x="45" y="300" width="510" height="40" rx="5" fill="#2d2d2d"/>
  <text x="55" y="318" fill="#9cdcfe" font-size="10" font-family="monospace">'A': [[0,1,1,1,0], [1,0,0,0,1], [1,1,1,1,1], [1,0,0,0,1], [1,0,0,0,1]]</text>
  <text x="55" y="333" fill="#6a9955" font-size="9" font-family="monospace">// JavaScript 2차원 배열 표현</text>
</svg>
