<svg xmlns="http://www.w3.org/2000/svg" viewBox="0 0 800 520">
  <defs>
    <linearGradient id="bgGrad" x1="0%" y1="0%" x2="100%" y2="100%">
      <stop offset="0%" style="stop-color:#FFFBF5"/>
      <stop offset="100%" style="stop-color:#FFF3E0"/>
    </linearGradient>
    <filter id="shadow" x="-20%" y="-20%" width="140%" height="140%">
      <feDropShadow dx="1" dy="2" stdDeviation="2" flood-opacity="0.10"/>
    </filter>
    <filter id="numShadow" x="-30%" y="-30%" width="160%" height="160%">
      <feDropShadow dx="1" dy="1" stdDeviation="1.5" flood-opacity="0.18"/>
    </filter>
  </defs>

  <!-- 배경 -->
  <rect width="800" height="520" fill="url(#bgGrad)" rx="12"/>

  <!-- 타이틀 -->
  <text x="400" y="28" text-anchor="middle" font-family="Noto Sans KR" font-size="16" font-weight="700" fill="#3E2723">🔮 분류 모드 — 화면 구성</text>
  <text x="400" y="44" text-anchor="middle" font-family="Noto Sans KR" font-size="10" fill="#8D6E63">CNN 사과 분류 시뮬레이터 v1.1.1</text>

  <!-- ===== 헤더 영역 ===== -->
  <rect x="30" y="56" width="740" height="36" rx="8" fill="white" filter="url(#shadow)"/>
  <text x="400" y="78" text-anchor="middle" font-family="Noto Sans KR" font-size="12" font-weight="600" fill="#E53935">🍎 CNN 사과 분류 시뮬레이터</text>
  <circle cx="50" cy="60" r="11" fill="#E53935" filter="url(#numShadow)"/>
  <text x="50" y="64" text-anchor="middle" font-family="Noto Sans KR" font-size="10" font-weight="700" fill="white">①</text>

  <!-- ===== 모드 탭 ===== -->
  <rect x="290" y="98" width="100" height="26" rx="6" fill="white" stroke="#FFCCBC" stroke-width="1.5"/>
  <text x="340" y="115" text-anchor="middle" font-family="Noto Sans KR" font-size="9" font-weight="500" fill="#5D4037">🧠 학습 모드</text>
  <rect x="396" y="98" width="100" height="26" rx="6" fill="#E53935"/>
  <text x="446" y="115" text-anchor="middle" font-family="Noto Sans KR" font-size="9" font-weight="600" fill="white">🔮 분류 모드</text>
  <circle cx="510" cy="111" r="11" fill="#E53935" filter="url(#numShadow)"/>
  <text x="510" y="115" text-anchor="middle" font-family="Noto Sans KR" font-size="10" font-weight="700" fill="white">②</text>

  <!-- ===== 3열 배경 ===== -->
  <rect x="30" y="134" width="170" height="346" rx="10" fill="white" filter="url(#shadow)" opacity="0.6"/>
  <rect x="210" y="134" width="360" height="346" rx="10" fill="white" filter="url(#shadow)" opacity="0.6"/>
  <rect x="580" y="134" width="190" height="346" rx="10" fill="white" filter="url(#shadow)" opacity="0.6"/>

  <!-- ===== 왼쪽: 입력 이미지 ===== -->
  <rect x="38" y="142" width="154" height="330" rx="8" fill="white" stroke="#FFCCBC" stroke-width="1"/>
  <text x="115" y="160" text-anchor="middle" font-family="Noto Sans KR" font-size="9" font-weight="600" fill="#3E2723">🖼️ 입력 이미지</text>
  <line x1="50" y1="167" x2="180" y2="167" stroke="#FFF3E0" stroke-width="1.5"/>
  <!-- 사과 미리보기 영역 -->
  <rect x="52" y="174" width="126" height="126" rx="8" fill="#FFF3E0" stroke="#E53935" stroke-width="1.5"/>
  <!-- 사과 그림 -->
  <ellipse cx="115" cy="248" rx="36" ry="34" fill="#E53935"/>
  <ellipse cx="106" cy="236" rx="10" ry="7" fill="rgba(255,255,255,0.35)"/>
  <line x1="113" y1="214" x2="116" y2="200" stroke="#5D4037" stroke-width="2.5" stroke-linecap="round"/>
  <path d="M116,203 Q128,192 132,205 Q126,206 116,203" fill="#4CAF50"/>
  <!-- 타입 선택 -->
  <rect x="52" y="308" width="58" height="26" rx="6" fill="#FFEBEE" stroke="#E53935" stroke-width="1.5"/>
  <text x="81" y="325" text-anchor="middle" font-family="Noto Sans KR" font-size="8" font-weight="600" fill="#C62828">🍎 익은</text>
  <rect x="116" y="308" width="62" height="26" rx="6" fill="white" stroke="#FFCCBC" stroke-width="1"/>
  <text x="147" y="325" text-anchor="middle" font-family="Noto Sans KR" font-size="8" fill="#5D4037">🍏 덜 익은</text>
  <!-- 슬라이더 -->
  <text x="52" y="350" font-family="Noto Sans KR" font-size="7" fill="#8D6E63">밝기 변화</text>
  <rect x="52" y="354" width="120" height="4" rx="2" fill="#FFCCBC"/><rect x="52" y="354" width="60" height="4" rx="2" fill="#E53935"/>
  <text x="52" y="370" font-family="Noto Sans KR" font-size="7" fill="#8D6E63">노이즈 강도</text>
  <rect x="52" y="374" width="120" height="4" rx="2" fill="#FFCCBC"/><rect x="52" y="374" width="24" height="4" rx="2" fill="#E53935"/>
  <text x="52" y="390" font-family="Noto Sans KR" font-size="7" fill="#8D6E63">회전 각도</text>
  <rect x="52" y="394" width="120" height="4" rx="2" fill="#FFCCBC"/><rect x="52" y="394" width="60" height="4" rx="2" fill="#E53935"/>
  <!-- 버튼들 -->
  <rect x="52" y="406" width="126" height="22" rx="6" fill="white" stroke="#FFCCBC" stroke-width="1"/>
  <text x="115" y="420" text-anchor="middle" font-family="Noto Sans KR" font-size="7.5" fill="#5D4037">🎲 랜덤 샘플</text>
  <rect x="52" y="434" width="126" height="24" rx="6" fill="#E53935"/>
  <text x="115" y="450" text-anchor="middle" font-family="Noto Sans KR" font-size="8" font-weight="600" fill="white">🔍 CNN 분류 실행</text>
  <!-- 번호 ③ -->
  <circle cx="45" cy="142" r="11" fill="#1565C0" filter="url(#numShadow)"/>
  <text x="45" y="146" text-anchor="middle" font-family="Noto Sans KR" font-size="10" font-weight="700" fill="white">③</text>

  <!-- ===== 중앙: CNN 아키텍처 ===== -->
  <rect x="218" y="142" width="348" height="80" rx="8" fill="white" stroke="#FFCCBC" stroke-width="1"/>
  <text x="392" y="160" text-anchor="middle" font-family="Noto Sans KR" font-size="9" font-weight="600" fill="#3E2723">🏗️ CNN 아키텍처 — 현재 처리 단계 시각화</text>
  <!-- 레이어 블록들 (간소화) -->
  <rect x="238" y="172" width="24" height="24" rx="3" fill="#E53935"/>
  <rect x="275" y="174" width="20" height="20" rx="3" fill="#7B1FA2BB"/>
  <rect x="308" y="176" width="16" height="16" rx="3" fill="#F57C00BB"/>
  <rect x="337" y="177" width="14" height="14" rx="3" fill="#7B1FA2BB"/>
  <rect x="364" y="179" width="11" height="11" rx="2" fill="#F57C00BB"/>
  <rect x="394" y="172" width="5" height="26" rx="2" fill="#1976D2BB"/>
  <rect x="418" y="175" width="5" height="20" rx="2" fill="#00897BBB"/>
  <rect x="442" y="179" width="5" height="12" rx="2" fill="#43A047"/>
  <!-- 연결선 -->
  <line x1="264" y1="184" x2="273" y2="184" stroke="#FFCCBC" stroke-width="1"/>
  <line x1="297" y1="184" x2="306" y2="184" stroke="#FFCCBC" stroke-width="1"/>
  <line x1="326" y1="184" x2="335" y2="184" stroke="#FFCCBC" stroke-width="1"/>
  <line x1="353" y1="184" x2="362" y2="184" stroke="#FFCCBC" stroke-width="1"/>
  <line x1="377" y1="184" x2="392" y2="184" stroke="#FFCCBC" stroke-width="1"/>
  <line x1="401" y1="184" x2="416" y2="184" stroke="#FFCCBC" stroke-width="1"/>
  <line x1="425" y1="184" x2="440" y2="184" stroke="#FFCCBC" stroke-width="1"/>
  <!-- 레이블 -->
  <text x="250" y="208" text-anchor="middle" font-family="Noto Sans KR" font-size="5.5" fill="#3E2723">Input</text>
  <text x="285" y="208" text-anchor="middle" font-family="Noto Sans KR" font-size="5.5" fill="#3E2723">Conv1</text>
  <text x="316" y="208" text-anchor="middle" font-family="Noto Sans KR" font-size="5.5" fill="#3E2723">Pool1</text>
  <text x="344" y="208" text-anchor="middle" font-family="Noto Sans KR" font-size="5.5" fill="#3E2723">Conv2</text>
  <text x="370" y="208" text-anchor="middle" font-family="Noto Sans KR" font-size="5.5" fill="#3E2723">Pool2</text>
  <text x="397" y="208" text-anchor="middle" font-family="Noto Sans KR" font-size="5" fill="#3E2723">Flat</text>
  <text x="421" y="208" text-anchor="middle" font-family="Noto Sans KR" font-size="5" fill="#3E2723">Dense</text>
  <text x="445" y="208" text-anchor="middle" font-family="Noto Sans KR" font-size="5" fill="#3E2723">Out</text>
  <!-- 번호 ④ -->
  <circle cx="225" cy="142" r="11" fill="#1976D2" filter="url(#numShadow)"/>
  <text x="225" y="146" text-anchor="middle" font-family="Noto Sans KR" font-size="10" font-weight="700" fill="white">④</text>

  <!-- ===== 중앙: 특성맵 시각화 ===== -->
  <rect x="218" y="230" width="348" height="130" rx="8" fill="white" stroke="#FFCCBC" stroke-width="1"/>
  <text x="392" y="248" text-anchor="middle" font-family="Noto Sans KR" font-size="9" font-weight="600" fill="#3E2723">🔬 특성맵 시각화</text>
  <!-- Conv1 블록 -->
  <rect x="228" y="258" width="160" height="46" rx="6" fill="#FAFAFA"/>
  <text x="240" y="270" font-family="Noto Sans KR" font-size="6.5" font-weight="600" fill="#7B1FA2">Conv1 — 에지 검출</text>
  <!-- 8개 미니 특성맵 -->
  <rect x="238" y="276" width="16" height="16" rx="2" fill="#1a3a5c"/><rect x="258" y="276" width="16" height="16" rx="2" fill="#1a4a3c"/>
  <rect x="278" y="276" width="16" height="16" rx="2" fill="#2a3a6c"/><rect x="298" y="276" width="16" height="16" rx="2" fill="#1a5a4c"/>
  <rect x="318" y="276" width="16" height="16" rx="2" fill="#0a4a5c"/><rect x="338" y="276" width="16" height="16" rx="2" fill="#2a3a4c"/>
  <rect x="358" y="276" width="16" height="16" rx="2" fill="#1a4a6c"/><rect x="378" y="276" width="16" height="16" rx="2" fill="#0a3a5c"/>
  <!-- Pool1 블록 -->
  <rect x="396" y="258" width="160" height="46" rx="6" fill="#FAFAFA"/>
  <text x="408" y="270" font-family="Noto Sans KR" font-size="6.5" font-weight="600" fill="#7B1FA2">Pool1 — 맥스풀링</text>
  <rect x="406" y="276" width="16" height="16" rx="2" fill="#5c3a1a"/><rect x="426" y="276" width="16" height="16" rx="2" fill="#6c4a2a"/>
  <rect x="446" y="276" width="16" height="16" rx="2" fill="#4c3a1a"/><rect x="466" y="276" width="16" height="16" rx="2" fill="#5c4a0a"/>
  <rect x="486" y="276" width="16" height="16" rx="2" fill="#7c3a2a"/><rect x="506" y="276" width="16" height="16" rx="2" fill="#4c4a1a"/>
  <rect x="526" y="276" width="16" height="16" rx="2" fill="#6c3a0a"/><rect x="546" y="276" width="16" height="16" rx="2" fill="#5c4a2a"/>
  <!-- Conv2 & Pool2 -->
  <rect x="228" y="310" width="160" height="42" rx="6" fill="#FAFAFA"/>
  <text x="240" y="322" font-family="Noto Sans KR" font-size="6.5" font-weight="600" fill="#7B1FA2">Conv2 — 패턴 인식</text>
  <rect x="238" y="330" width="14" height="14" rx="2" fill="#1a3a5c"/><rect x="256" y="330" width="14" height="14" rx="2" fill="#2a4a6c"/>
  <rect x="274" y="330" width="14" height="14" rx="2" fill="#0a5a4c"/><rect x="292" y="330" width="14" height="14" rx="2" fill="#1a4a3c"/>
  <rect x="310" y="330" width="14" height="14" rx="2" fill="#2a3a5c"/><rect x="328" y="330" width="14" height="14" rx="2" fill="#0a4a6c"/>
  <rect x="346" y="330" width="14" height="14" rx="2" fill="#1a5a5c"/><rect x="364" y="330" width="14" height="14" rx="2" fill="#2a3a4c"/>
  <rect x="396" y="310" width="160" height="42" rx="6" fill="#FAFAFA"/>
  <text x="408" y="322" font-family="Noto Sans KR" font-size="6.5" font-weight="600" fill="#7B1FA2">Pool2 — 맥스풀링</text>
  <rect x="406" y="330" width="14" height="14" rx="2" fill="#6c4a1a"/><rect x="424" y="330" width="14" height="14" rx="2" fill="#5c3a2a"/>
  <rect x="442" y="330" width="14" height="14" rx="2" fill="#7c4a0a"/><rect x="460" y="330" width="14" height="14" rx="2" fill="#4c3a1a"/>
  <rect x="478" y="330" width="14" height="14" rx="2" fill="#6c4a2a"/><rect x="496" y="330" width="14" height="14" rx="2" fill="#5c3a0a"/>
  <rect x="514" y="330" width="14" height="14" rx="2" fill="#7c3a1a"/><rect x="532" y="330" width="14" height="14" rx="2" fill="#4c4a2a"/>
  <!-- 번호 ⑤ -->
  <circle cx="225" cy="230" r="11" fill="#7B1FA2" filter="url(#numShadow)"/>
  <text x="225" y="234" text-anchor="middle" font-family="Noto Sans KR" font-size="10" font-weight="700" fill="white">⑤</text>

  <!-- ===== 중앙: 분류 결과 ===== -->
  <rect x="218" y="368" width="348" height="104" rx="8" fill="white" stroke="#FFCCBC" stroke-width="1"/>
  <text x="392" y="386" text-anchor="middle" font-family="Noto Sans KR" font-size="9" font-weight="600" fill="#3E2723">📋 분류 결과</text>
  <!-- 익은 사과 바 -->
  <text x="232" y="406" font-family="Noto Sans KR" font-size="8" font-weight="600" fill="#3E2723">🍎 익은 사과</text>
  <text x="548" y="406" text-anchor="end" font-family="JetBrains Mono" font-size="8" font-weight="600" fill="#E53935">78.3%</text>
  <rect x="232" y="410" width="320" height="14" rx="4" fill="#FFF3E0"/>
  <rect x="232" y="410" width="250" height="14" rx="4" fill="url(#ripeFillGrad)"/>
  <!-- 덜 익은 사과 바 -->
  <text x="232" y="438" font-family="Noto Sans KR" font-size="8" font-weight="600" fill="#3E2723">🍏 덜 익은 사과</text>
  <text x="548" y="438" text-anchor="end" font-family="JetBrains Mono" font-size="8" font-weight="600" fill="#43A047">21.7%</text>
  <rect x="232" y="442" width="320" height="14" rx="4" fill="#FFF3E0"/>
  <rect x="232" y="442" width="69" height="14" rx="4" fill="url(#unripeFillGrad)"/>
  <!-- 판정 결과 -->
  <rect x="282" y="460" width="200" height="30" rx="8" fill="#FFEBEE" stroke="#E53935" stroke-width="1.5"/>
  <text x="382" y="480" text-anchor="middle" font-family="Noto Sans KR" font-size="11" font-weight="700" fill="#C62828">🍎 익은 사과  ✅ 정답!</text>
  <!-- 번호 ⑥ -->
  <circle cx="225" cy="368" r="11" fill="#E53935" filter="url(#numShadow)"/>
  <text x="225" y="372" text-anchor="middle" font-family="Noto Sans KR" font-size="10" font-weight="700" fill="white">⑥</text>

  <!-- 그라데이션 정의 -->
  <defs>
    <linearGradient id="ripeFillGrad" x1="0%" y1="0%" x2="100%" y2="0%">
      <stop offset="0%" style="stop-color:#E53935"/><stop offset="100%" style="stop-color:#FF7043"/>
    </linearGradient>
    <linearGradient id="unripeFillGrad" x1="0%" y1="0%" x2="100%" y2="0%">
      <stop offset="0%" style="stop-color:#43A047"/><stop offset="100%" style="stop-color:#66BB6A"/>
    </linearGradient>
  </defs>

  <!-- ===== 오른쪽: CNN 레이어 설명 (공통) ===== -->
  <rect x="588" y="142" width="174" height="210" rx="8" fill="white" stroke="#FFCCBC" stroke-width="1"/>
  <text x="675" y="160" text-anchor="middle" font-family="Noto Sans KR" font-size="9" font-weight="600" fill="#3E2723">📖 CNN 레이어 설명</text>
  <line x1="600" y1="167" x2="750" y2="167" stroke="#FFF3E0" stroke-width="1.5"/>
  <rect x="600" y="174" width="150" height="18" rx="4" fill="#E3F2FD" stroke="#1565C0" stroke-width="0.8"/>
  <text x="608" y="186" font-family="Noto Sans KR" font-size="6.5" font-weight="600" fill="#1565C0">① 입력층 (Input)</text>
  <rect x="600" y="196" width="150" height="18" rx="4" fill="#F3E5F5"/>
  <text x="608" y="208" font-family="Noto Sans KR" font-size="6.5" fill="#7B1FA2">② 합성곱층 1 (Conv2D)</text>
  <rect x="600" y="218" width="150" height="18" rx="4" fill="#FFF3E0"/>
  <text x="608" y="230" font-family="Noto Sans KR" font-size="6.5" fill="#E65100">③ 풀링층 1 (MaxPool)</text>
  <rect x="600" y="240" width="150" height="18" rx="4" fill="#F3E5F5"/>
  <text x="608" y="252" font-family="Noto Sans KR" font-size="6.5" fill="#7B1FA2">④ 합성곱층 2 (Conv2D)</text>
  <rect x="600" y="262" width="150" height="18" rx="4" fill="#FFF3E0"/>
  <text x="608" y="274" font-family="Noto Sans KR" font-size="6.5" fill="#E65100">⑤ 풀링층 2 (MaxPool)</text>
  <rect x="600" y="284" width="150" height="18" rx="4" fill="#E3F2FD"/>
  <text x="608" y="296" font-family="Noto Sans KR" font-size="6.5" fill="#1565C0">⑥ 평탄화 (Flatten)</text>
  <rect x="600" y="306" width="150" height="18" rx="4" fill="#E0F2F1"/>
  <text x="608" y="318" font-family="Noto Sans KR" font-size="6.5" fill="#00695C">⑦ 완전연결층 (Dense)</text>
  <rect x="600" y="328" width="150" height="18" rx="4" fill="#E8F5E9"/>
  <text x="608" y="340" font-family="Noto Sans KR" font-size="6.5" fill="#2E7D32">⑧ 출력층 (Softmax)</text>
  <!-- 번호 ⑦ -->
  <circle cx="595" cy="142" r="11" fill="#7B1FA2" filter="url(#numShadow)"/>
  <text x="595" y="146" text-anchor="middle" font-family="Noto Sans KR" font-size="10" font-weight="700" fill="white">⑦</text>

  <!-- ===== 오른쪽: 학습 현황 (공통) ===== -->
  <rect x="588" y="360" width="174" height="112" rx="8" fill="white" stroke="#FFCCBC" stroke-width="1"/>
  <text x="675" y="378" text-anchor="middle" font-family="Noto Sans KR" font-size="9" font-weight="600" fill="#3E2723">📊 학습 현황</text>
  <line x1="600" y1="385" x2="750" y2="385" stroke="#FFF3E0" stroke-width="1.5"/>
  <rect x="600" y="392" width="70" height="30" rx="6" fill="#FFF3E0"/>
  <text x="635" y="406" text-anchor="middle" font-family="JetBrains Mono" font-size="11" font-weight="700" fill="#E53935">30</text>
  <text x="635" y="417" text-anchor="middle" font-family="Noto Sans KR" font-size="6" fill="#8D6E63">에포크</text>
  <rect x="678" y="392" width="72" height="30" rx="6" fill="#FFF3E0"/>
  <text x="714" y="406" text-anchor="middle" font-family="JetBrains Mono" font-size="11" font-weight="700" fill="#E53935">3000</text>
  <text x="714" y="417" text-anchor="middle" font-family="Noto Sans KR" font-size="6" fill="#8D6E63">학습 샘플</text>
  <rect x="600" y="428" width="70" height="30" rx="6" fill="#FFF3E0"/>
  <text x="635" y="443" text-anchor="middle" font-family="JetBrains Mono" font-size="9" font-weight="700" fill="#43A047">0.04</text>
  <text x="635" y="454" text-anchor="middle" font-family="Noto Sans KR" font-size="6" fill="#8D6E63">현재 손실</text>
  <rect x="678" y="428" width="72" height="30" rx="6" fill="#FFF3E0"/>
  <text x="714" y="443" text-anchor="middle" font-family="JetBrains Mono" font-size="9" font-weight="700" fill="#43A047">97.1%</text>
  <text x="714" y="454" text-anchor="middle" font-family="Noto Sans KR" font-size="6" fill="#8D6E63">정확도</text>
  <!-- 번호 ⑧ -->
  <circle cx="595" cy="360" r="11" fill="#F57C00" filter="url(#numShadow)"/>
  <text x="595" y="364" text-anchor="middle" font-family="Noto Sans KR" font-size="10" font-weight="700" fill="white">⑧</text>

  <!-- ===== 하단 번호 범례 ===== -->
  <rect x="30" y="488" width="740" height="26" rx="6" fill="white" filter="url(#shadow)" opacity="0.9"/>
  <text x="50" y="506" font-family="Noto Sans KR" font-size="7.5" fill="#3E2723">
    <tspan fill="#E53935" font-weight="700">① 헤더</tspan>
    <tspan dx="8" fill="#E53935" font-weight="700">② 모드탭</tspan>
    <tspan dx="8" fill="#1565C0" font-weight="700">③ 입력이미지</tspan>
    <tspan dx="8" fill="#1976D2" font-weight="700">④ 아키텍처</tspan>
    <tspan dx="8" fill="#7B1FA2" font-weight="700">⑤ 특성맵</tspan>
    <tspan dx="8" fill="#E53935" font-weight="700">⑥ 분류결과</tspan>
    <tspan dx="8" fill="#7B1FA2" font-weight="700">⑦ 레이어설명</tspan>
    <tspan dx="8" fill="#F57C00" font-weight="700">⑧ 학습현황</tspan>
  </text>
</svg>
