<svg xmlns="http://www.w3.org/2000/svg" viewBox="0 0 800 460">
  <defs>
    <linearGradient id="bgGrad" x1="0%" y1="0%" x2="100%" y2="100%">
      <stop offset="0%" style="stop-color:#FFFBF5"/>
      <stop offset="100%" style="stop-color:#FFF3E0"/>
    </linearGradient>
    <filter id="shadow" x="-20%" y="-20%" width="140%" height="140%">
      <feDropShadow dx="2" dy="3" stdDeviation="3" flood-opacity="0.12"/>
    </filter>
  </defs>
  
  <!-- 배경 -->
  <rect width="800" height="460" fill="url(#bgGrad)"/>
  
  <!-- 제목: 박스(300×30) -->
  <rect x="250" y="8" width="300" height="30" rx="6" fill="#3E2723"/>
  <text x="400" y="29" text-anchor="middle" font-family="Noto Sans KR, sans-serif" font-size="15" font-weight="700" fill="#FFFFFF">🔮 추론 모드 화면 구성</text>
  
  <!-- 모드 탭 (y:46) -->
  <rect x="300" y="46" width="90" height="26" rx="5" fill="#FFFFFF" stroke="#FFCCBC"/>
  <text x="345" y="64" text-anchor="middle" font-family="Noto Sans KR, sans-serif" font-size="10" fill="#8D6E63">🧠 학습 모드</text>
  
  <rect x="400" y="46" width="90" height="26" rx="5" fill="#9C27B0"/>
  <text x="445" y="64" text-anchor="middle" font-family="Noto Sans KR, sans-serif" font-size="10" fill="#FFFFFF">🔮 추론 모드</text>
  
  <!-- ===== 왼쪽 패널: 예측 입력 (x:25, w:180) ===== -->
  <rect x="25" y="82" width="180" height="300" rx="10" fill="#FFFFFF" filter="url(#shadow)"/>
  
  <!-- 헤더 -->
  <rect x="25" y="82" width="180" height="28" rx="10" fill="#9C27B0"/>
  <rect x="25" y="100" width="180" height="10" fill="#9C27B0"/>
  <text x="115" y="102" text-anchor="middle" font-family="Noto Sans KR, sans-serif" font-size="11" font-weight="600" fill="#FFFFFF">🎯 예측 입력</text>
  
  <!-- X값 슬라이더 (y:122) -->
  <text x="38" y="138" font-family="Noto Sans KR, sans-serif" font-size="10" font-weight="500" fill="#5D4037">X값 입력</text>
  <rect x="38" y="146" width="135" height="10" rx="5" fill="#F3E5F5"/>
  <rect x="38" y="146" width="80" height="10" rx="5" fill="#9C27B0"/>
  <circle cx="118" cy="151" r="7" fill="#9C27B0" stroke="#FFFFFF" stroke-width="2"/>
  <text x="38" y="172" font-family="Noto Sans KR, sans-serif" font-size="8" fill="#8D6E63">0</text>
  <text x="105" y="172" text-anchor="middle" font-family="Noto Sans KR, sans-serif" font-size="10" font-weight="700" fill="#9C27B0">60.0</text>
  <text x="173" y="172" text-anchor="end" font-family="Noto Sans KR, sans-serif" font-size="8" fill="#8D6E63">100</text>
  
  <!-- 품질 점수 계산 (y:186, h:100) -->
  <rect x="38" y="186" width="154" height="100" rx="8" fill="#F3E5F5"/>
  <text x="115" y="206" text-anchor="middle" font-family="Noto Sans KR, sans-serif" font-size="10" font-weight="600" fill="#7B1FA2">⭐ 조합점수 계산</text>
  
  <rect x="48" y="216" width="134" height="24" rx="4" fill="#FFFFFF"/>
  <text x="58" y="232" font-family="Noto Sans KR, sans-serif" font-size="9" fill="#5D4037">부리길이 점수</text>
  <text x="172" y="232" text-anchor="end" font-family="Noto Sans KR, sans-serif" font-size="9" font-weight="600" fill="#E53935">35.0점</text>
  
  <rect x="48" y="246" width="134" height="24" rx="4" fill="#FFFFFF"/>
  <text x="58" y="262" font-family="Noto Sans KR, sans-serif" font-size="9" fill="#5D4037">부리깊이 점수</text>
  <text x="172" y="262" text-anchor="end" font-family="Noto Sans KR, sans-serif" font-size="9" font-weight="600" fill="#E53935">25.0점</text>
  
  <line x1="48" y1="275" x2="172" y2="275" stroke="#9C27B0" stroke-width="2"/>
  <text x="58" y="286" font-family="Noto Sans KR, sans-serif" font-size="9" font-weight="700" fill="#7B1FA2">총 조합점수</text>
  <text x="172" y="286" text-anchor="end" font-family="Noto Sans KR, sans-serif" font-size="11" font-weight="700" fill="#7B1FA2">60.0점</text>
  
  <!-- 자동 추론 안내 (y:296, h:36) -->
  <rect x="38" y="296" width="154" height="36" rx="6" fill="#E8F5E9"/>
  <text x="115" y="313" text-anchor="middle" font-family="Noto Sans KR, sans-serif" font-size="9" fill="#2E7D32">💡 슬라이더 조절 시</text>
  <text x="115" y="326" text-anchor="middle" font-family="Noto Sans KR, sans-serif" font-size="9" font-weight="600" fill="#2E7D32">자동으로 예측 실행!</text>
  
  <!-- 가중치 표시 (y:340, h:32) -->
  <rect x="38" y="340" width="154" height="32" rx="5" fill="#FFF3E0"/>
  <text x="115" y="361" text-anchor="middle" font-family="Noto Sans KR, sans-serif" font-size="9" fill="#5D4037">가중치: 50% + 50%</text>
  
  <!-- ===== 중앙: 예측 시각화 (x:215, w:355) ===== -->
  <rect x="215" y="82" width="355" height="300" rx="10" fill="#FFFFFF" filter="url(#shadow)"/>
  <text x="392" y="102" text-anchor="middle" font-family="Noto Sans KR, sans-serif" font-size="11" font-weight="600" fill="#5D4037">📈 예측 시각화</text>
  
  <!-- 좌표축 -->
  <line x1="260" y1="120" x2="260" y2="350" stroke="#BCAAA4" stroke-width="1"/>
  <line x1="260" y1="350" x2="530" y2="350" stroke="#BCAAA4" stroke-width="1"/>
  <text x="255" y="130" text-anchor="end" font-family="Noto Sans KR, sans-serif" font-size="9" fill="#5D4037">Y</text>
  <text x="525" y="365" text-anchor="end" font-family="Noto Sans KR, sans-serif" font-size="9" fill="#5D4037">X →</text>
  
  <!-- Y축 눈금 -->
  <text x="255" y="145" text-anchor="end" font-family="Noto Sans KR, sans-serif" font-size="8" fill="#8D6E63">4000</text>
  <text x="255" y="200" text-anchor="end" font-family="Noto Sans KR, sans-serif" font-size="8" fill="#8D6E63">3000</text>
  <text x="255" y="255" text-anchor="end" font-family="Noto Sans KR, sans-serif" font-size="8" fill="#8D6E63">2000</text>
  <text x="255" y="310" text-anchor="end" font-family="Noto Sans KR, sans-serif" font-size="8" fill="#8D6E63">1000</text>
  
  <!-- X축 눈금 -->
  <text x="260" y="365" font-family="Noto Sans KR, sans-serif" font-size="8" fill="#8D6E63">0</text>
  <text x="330" y="365" text-anchor="middle" font-family="Noto Sans KR, sans-serif" font-size="8" fill="#8D6E63">25</text>
  <text x="400" y="365" text-anchor="middle" font-family="Noto Sans KR, sans-serif" font-size="8" fill="#8D6E63">50</text>
  <text x="465" y="365" text-anchor="middle" font-family="Noto Sans KR, sans-serif" font-size="8" fill="#8D6E63">75</text>
  <text x="520" y="365" text-anchor="end" font-family="Noto Sans KR, sans-serif" font-size="8" fill="#8D6E63">100</text>
  
  <!-- 데이터 점 (희미하게) -->
  <circle cx="290" cy="320" r="3" fill="#43A047" opacity="0.4"/>
  <circle cx="310" cy="300" r="3" fill="#8BC34A" opacity="0.4"/>
  <circle cx="340" cy="275" r="3" fill="#CDDC39" opacity="0.4"/>
  <circle cx="370" cy="250" r="3" fill="#FFC107" opacity="0.4"/>
  <circle cx="400" cy="225" r="3" fill="#FF9800" opacity="0.4"/>
  <circle cx="430" cy="200" r="3" fill="#FF7043" opacity="0.4"/>
  <circle cx="460" cy="175" r="3" fill="#E53935" opacity="0.4"/>
  <circle cx="490" cy="155" r="3" fill="#C62828" opacity="0.4"/>
  
  <!-- 회귀선 -->
  <line x1="270" y1="335" x2="510" y2="140" stroke="#E53935" stroke-width="2"/>
  
  <!-- 예측점 표시 (X=60) -->
  <!-- 수직선 -->
  <line x1="400" y1="350" x2="400" y2="218" stroke="#9C27B0" stroke-width="2" stroke-dasharray="5,3"/>
  <!-- 수평선 -->
  <line x1="260" y1="218" x2="400" y2="218" stroke="#9C27B0" stroke-width="2" stroke-dasharray="5,3"/>
  <!-- 예측점 (노란 원) -->
  <circle cx="400" cy="218" r="12" fill="#FFC107" stroke="#FF9800" stroke-width="3"/>
  
  <!-- 가격 라벨 -->
  <rect x="405" y="195" width="70" height="22" rx="4" fill="#FFC107"/>
  <text x="440" y="211" text-anchor="middle" font-family="Noto Sans KR, sans-serif" font-size="10" font-weight="600" fill="#3E2723">2,842원</text>
  
  <!-- X 라벨 -->
  <rect x="380" y="355" width="40" height="18" rx="3" fill="#9C27B0"/>
  <text x="400" y="368" text-anchor="middle" font-family="Noto Sans KR, sans-serif" font-size="9" fill="#FFFFFF">X=60</text>
  
  <!-- 회귀식 표시 -->
  <rect x="350" y="112" width="150" height="24" rx="4" fill="#FFF3E0"/>
  <text x="425" y="129" text-anchor="middle" font-family="Noto Sans KR, sans-serif" font-size="10" font-weight="600" fill="#E53935">Y = 30.5 × X + 1012</text>
  
  <!-- ===== 오른쪽 패널: 예측 결과 (x:580, w:195) ===== -->
  <rect x="580" y="82" width="195" height="300" rx="10" fill="#FFFFFF" filter="url(#shadow)"/>
  
  <!-- 헤더 -->
  <rect x="580" y="82" width="195" height="28" rx="10" fill="#9C27B0"/>
  <rect x="580" y="100" width="195" height="10" fill="#9C27B0"/>
  <text x="677" y="102" text-anchor="middle" font-family="Noto Sans KR, sans-serif" font-size="11" font-weight="600" fill="#FFFFFF">💰 예측 결과</text>
  
  <!-- 예측 가격 표시 (y:120, h:70) -->
  <rect x="595" y="120" width="165" height="70" rx="10" fill="#9C27B0"/>
  <text x="677" y="148" text-anchor="middle" font-family="Noto Sans KR, sans-serif" font-size="11" fill="#E1BEE7">예측 가격</text>
  <text x="677" y="178" text-anchor="middle" font-family="Noto Sans KR, sans-serif" font-size="22" font-weight="700" fill="#FFFFFF">2,842원</text>
  
  <!-- 추론 과정 (y:200, h:110) -->
  <rect x="595" y="200" width="165" height="110" rx="8" fill="#F3E5F5"/>
  <text x="677" y="222" text-anchor="middle" font-family="Noto Sans KR, sans-serif" font-size="10" font-weight="600" fill="#7B1FA2">📐 추론 과정</text>
  
  <text x="605" y="248" font-family="Noto Sans KR, sans-serif" font-size="9" fill="#5D4037">🏷️ 기본 가격 (b)</text>
  <text x="750" y="248" text-anchor="end" font-family="Noto Sans KR, sans-serif" font-size="9" font-weight="600" fill="#E53935">1,012원</text>
  
  <text x="605" y="270" font-family="Noto Sans KR, sans-serif" font-size="9" fill="#5D4037">📈 기울기 기여</text>
  <text x="750" y="270" text-anchor="end" font-family="Noto Sans KR, sans-serif" font-size="9" font-weight="600" fill="#E53935">+1,830원</text>
  <text x="620" y="284" font-family="Noto Sans KR, sans-serif" font-size="8" fill="#8D6E63">(30.5 × 60)</text>
  
  <line x1="605" y1="292" x2="750" y2="292" stroke="#9C27B0" stroke-width="2"/>
  <text x="605" y="306" font-family="Noto Sans KR, sans-serif" font-size="9" font-weight="700" fill="#7B1FA2">💰 최종 가격</text>
  <text x="750" y="306" text-anchor="end" font-family="Noto Sans KR, sans-serif" font-size="11" font-weight="700" fill="#7B1FA2">2,842원</text>
  
  <!-- 회귀식 (y:320, h:52) -->
  <rect x="595" y="320" width="165" height="52" rx="6" fill="#FFF3E0"/>
  <text x="677" y="342" text-anchor="middle" font-family="Noto Sans KR, sans-serif" font-size="9" font-weight="600" fill="#5D4037">학습된 회귀식</text>
  <text x="677" y="362" text-anchor="middle" font-family="Noto Sans KR, sans-serif" font-size="11" font-weight="700" fill="#E53935">Y = 30.5 × X + 1012</text>
  
  <!-- ===== 범례 (y:395) ===== -->
  <rect x="25" y="395" width="750" height="55" rx="8" fill="#FFFFFF" filter="url(#shadow)"/>
  <text x="400" y="415" text-anchor="middle" font-family="Noto Sans KR, sans-serif" font-size="10" font-weight="600" fill="#5D4037">📌 추론 모드 시각화 요소</text>
  
  <!-- 범례 아이템들 (y:430) -->
  <line x1="50" y1="435" x2="80" y2="435" stroke="#9C27B0" stroke-width="2" stroke-dasharray="5,3"/>
  <text x="90" y="439" font-family="Noto Sans KR, sans-serif" font-size="9" fill="#5D4037">점선 (수직/수평)</text>
  
  <circle cx="220" cy="435" r="8" fill="#FFC107" stroke="#FF9800" stroke-width="2"/>
  <text x="235" y="439" font-family="Noto Sans KR, sans-serif" font-size="9" fill="#5D4037">예측점</text>
  
  <line x1="320" y1="435" x2="350" y2="435" stroke="#E53935" stroke-width="2"/>
  <text x="360" y="439" font-family="Noto Sans KR, sans-serif" font-size="9" fill="#5D4037">회귀선</text>
  
  <circle cx="450" cy="435" r="5" fill="#43A047" opacity="0.5"/>
  <text x="465" y="439" font-family="Noto Sans KR, sans-serif" font-size="9" fill="#5D4037">학습 데이터</text>
  
  <rect x="560" y="427" width="60" height="18" rx="4" fill="#9C27B0"/>
  <text x="590" y="440" text-anchor="middle" font-family="Noto Sans KR, sans-serif" font-size="8" fill="#FFFFFF">라벨</text>
  
  <rect x="640" y="427" width="80" height="18" rx="4" fill="#FFC107"/>
  <text x="680" y="440" text-anchor="middle" font-family="Noto Sans KR, sans-serif" font-size="8" fill="#3E2723">가격 표시</text>
</svg>
